{"glyphs":{"\u0000":{"ha":0,"x_min":0,"x_max":0,"o":""}," ":{"ha":345,"x_min":-149,"x_max":559,"o":"m -140 877 l 550 877 q 559 868 559 876 l 559 514 q 550 506 559 506 l -119 506 q -127 497 -127 505 l -127 -163 q -136 -172 -127 -172 l -140 -172 q -149 -163 -149 -172 l -149 868 q -140 877 -148 877 m -127 855 l -127 536 q -119 527 -126 527 l -89 527 l -89 855 l -127 855 m -67 855 l -67 527 l 533 527 q 542 536 542 527 l 542 855 l -67 855 z "},"!":{"ha":456,"x_min":-375,"x_max":543,"o":"m 65 918 l 106 918 q 488 684 336 918 q 543 500 543 576 l 543 422 q 340 78 543 234 q 106 0 216 0 l 65 0 q -292 197 -131 0 q -375 459 -375 330 q -100 881 -375 733 q 65 918 -7 918 m -334 481 l -329 473 l -329 445 q -334 440 -329 440 q -311 326 -329 430 q 88 41 -166 41 q 478 312 349 41 q 506 431 492 353 q 501 436 506 436 l 506 459 l 501 481 l 506 481 q 359 780 506 627 q 102 876 230 876 l 70 876 q -307 610 -173 876 q -334 481 -325 545 m 79 637 q 111 629 88 637 l 106 619 l 106 532 l 244 532 q 254 523 254 531 l 254 514 q 244 505 254 505 l 116 505 q 235 353 149 406 l 258 349 l 258 340 q 231 317 245 317 q 102 459 149 359 l 102 473 l 98 473 q 1 330 98 409 q 52 440 22 376 q 75 505 61 457 l -40 505 q -50 514 -50 505 l -50 523 q -40 532 -48 532 l 75 532 l 75 629 l 79 637 m 180 619 l 212 578 l 212 564 l 189 559 l 184 559 q 157 601 184 570 l 157 606 q 180 619 157 616 z "},"\"":{"ha":456,"x_min":-248,"x_max":423,"o":"m -230 936 q 92 755 80 755 l 406 936 q 423 905 423 916 q 127 733 251 799 l 418 556 l 418 552 q 401 526 418 548 l 105 697 l 105 93 q 238 -31 195 93 l 238 -79 q 96 -216 238 -180 l 75 -216 q -62 -102 -16 -216 q -67 -66 -67 -85 l -67 -44 q 57 93 -67 50 l 66 93 l 66 693 l -226 526 q -243 561 -243 544 q 48 733 31 715 l -248 901 q -230 936 -248 916 m -36 -49 l 207 -49 q 92 62 207 36 l 83 62 q -31 -40 -31 41 q -36 -49 -36 -40 z "},"#":{"ha":906,"x_min":-155,"x_max":932,"o":"m 347 652 l 422 652 q 873 472 711 652 q 932 317 932 384 l 932 259 q 802 29 932 93 q 698 12 741 12 q 418 41 684 12 l 113 8 l 71 8 q -130 134 -75 8 q -155 267 -155 197 q 267 648 -155 585 q 347 652 308 652 m -130 280 l -130 259 q 75 33 -130 33 l 109 33 l 414 62 l 426 62 l 698 37 l 706 37 q 882 134 836 37 q 911 271 911 204 l 911 300 q 585 610 911 522 q 385 631 482 631 q -117 368 -28 631 q -130 280 -130 324 m 401 585 q 510 476 410 581 l 510 472 q 401 359 473 425 q 288 472 396 359 q 401 585 289 478 m 397 555 l 317 472 q 397 393 321 472 l 401 393 q 481 472 407 393 q 397 555 481 477 m 389 530 l 401 530 q 456 476 422 501 l 456 468 q 401 414 427 446 l 397 414 q 363 443 372 443 q 342 468 363 455 l 342 476 q 363 501 363 489 q 389 530 389 501 z "},"%":{"ha":1092,"x_min":196,"x_max":880,"o":"m 266 851 l 865 851 q 880 836 880 848 l 880 548 q 865 532 880 532 l 266 532 l 266 58 q 328 -82 266 41 l 196 -82 l 196 -66 q 250 42 250 17 l 250 836 q 266 851 253 851 m 274 836 l 274 555 l 865 555 l 865 836 l 274 836 m 258 -4 l 227 -59 l 297 -59 q 258 -4 271 -4 z "},"&":{"ha":1141,"x_min":-113,"x_max":1008,"o":"m 240 684 q 271 626 271 640 q 40 226 40 464 l 40 178 q 80 13 40 152 q 292 -237 120 -125 l 292 -242 q 256 -290 271 -290 q 151 -216 204 -258 l 145 -216 q 92 -269 145 -223 q 71 -248 84 -269 l 124 -190 q 8 0 8 -35 l -39 178 l -102 178 q -113 189 -113 178 l -113 199 q -102 210 -111 210 l -28 210 l -28 220 q 124 594 -28 411 q 77 657 77 629 l 92 668 l 98 668 q 151 615 144 615 q 240 684 200 665 m 571 394 q 750 315 749 327 q 671 283 684 283 q 566 321 576 321 q 477 289 484 289 q 397 326 406 307 q 571 394 557 394 m 319 289 q 382 252 382 261 l 292 205 q 397 157 397 168 q 308 126 333 126 q 124 210 136 195 q 319 289 230 262 m 840 283 q 1008 216 957 231 l 1008 210 q 824 132 1008 197 q 750 168 760 151 l 750 174 l 840 205 l 840 210 q 760 247 760 238 l 760 252 q 840 283 766 252 m 661 132 q 729 84 729 93 q 587 3 725 68 l 460 43 q 403 84 403 74 q 487 125 431 91 l 555 91 l 566 84 q 661 132 652 132 m 555 26 z "},"'":{"ha":219,"x_min":-199,"x_max":537,"o":"m -161 738 l 503 738 q 511 730 511 736 l 511 704 l 283 704 l 283 701 q 485 544 416 659 q 537 372 537 454 l 533 294 l 530 252 l 526 252 l 515 211 q 507 200 517 200 q 332 17 451 77 q 178 -20 251 -20 l 163 -20 q -150 170 -29 -20 q -161 196 -161 189 l -169 193 q -172 196 -169 196 l -169 203 q -199 357 -199 289 q -8 674 -199 547 q 59 701 45 701 l 59 704 l -169 704 l -169 730 q -161 738 -168 738 m -163 363 l -159 356 l -159 315 l -156 289 l -149 289 q -141 304 -149 304 q -149 281 -141 281 l -149 274 q -119 207 -140 274 q -126 199 -119 199 q -55 106 -103 149 q -3 158 -34 158 l 12 158 q 68 102 40 158 q 91 83 75 83 q 128 143 98 91 q 162 158 145 158 q 248 87 189 158 l 252 87 l 292 143 q 334 158 311 154 q 401 106 372 158 q 502 289 439 138 l 505 315 l 505 356 q 509 359 505 359 q 378 614 509 496 q 173 685 287 685 q -152 435 -58 685 q -163 363 -161 363 m 409 512 l 413 505 l 413 373 q 416 264 413 331 q 424 249 401 229 l 424 245 q -135 369 -120 369 l -135 377 l 409 512 m 3 381 q 205 325 5 375 l 212 329 q 268 310 259 310 l 268 317 l 264 325 l 275 332 q 283 325 283 332 l 283 314 l 279 307 l 339 295 l 339 310 l 336 317 l 347 325 q 354 317 354 324 l 354 295 l 351 288 l 358 288 q 366 310 358 310 l 373 307 l 369 299 l 369 288 l 380 288 l 380 299 l 376 307 q 380 310 380 307 q 369 321 375 310 l 369 329 l 373 329 l 380 325 l 380 475 q 3 381 16 381 m 201 404 l 201 400 l 197 393 l 328 393 q 336 385 336 391 l 336 370 q 328 363 336 363 l 197 363 l 201 355 l 201 351 l 100 374 l 100 381 l 201 404 m -38 113 q 168 41 62 41 q 373 116 281 41 l 373 120 q 328 157 348 157 q 272 97 300 157 l 257 86 l 245 86 q 175 150 216 86 q 153 157 163 157 q 115 101 144 157 q 78 82 92 82 q 14 153 53 82 l -1 161 q -38 113 -22 161 z "},"(":{"ha":514,"x_min":171,"x_max":475,"o":"m 171 408 q 238 767 172 595 q 420 1067 304 939 l 475 1067 q 319 770 358 903 q 280 415 280 639 l 280 400 q 319 46 280 176 q 475 -251 358 -87 l 420 -251 q 238 48 304 -123 q 171 408 172 220 z "},")":{"ha":514,"x_min":39,"x_max":343,"o":"m 94 -251 l 39 -251 q 195 46 156 -87 q 234 400 234 176 l 234 415 q 195 770 234 639 q 39 1067 156 903 l 94 1067 q 276 767 210 939 q 343 408 342 595 q 276 48 342 220 q 94 -251 210 -123 z "},"*":{"ha":2038,"x_min":7,"x_max":2035,"o":"m 640 1057 l 715 1057 q 841 1034 841 1038 l 980 990 q 1166 971 1040 981 q 1291 966 1166 968 l 1297 966 q 1415 994 1409 994 q 1581 1013 1488 1000 l 1739 1036 l 1830 1040 q 1925 1023 1919 1025 q 1967 990 1963 995 l 1998 941 q 2021 848 2021 863 q 2035 759 2035 780 q 2023 699 2030 712 q 2010 678 2019 685 q 1981 659 1990 659 q 1962 652 1967 652 q 1889 657 1889 654 q 1753 680 1778 671 q 1665 697 1722 688 l 1624 697 q 1544 688 1544 692 q 1500 671 1512 679 q 1480 654 1492 668 l 1455 621 q 1416 545 1449 612 q 1390 473 1413 541 l 1337 272 q 1309 193 1316 210 l 1272 113 q 1229 43 1248 71 q 1194 12 1198 12 q 1164 2 1194 8 l 1163 1 q 1133 13 1160 1 q 1061 94 1068 84 q 1006 170 1015 155 q 937 278 973 224 q 890 317 895 316 q 840 345 848 345 q 798 357 808 357 l 739 365 q 504 347 604 358 l 426 345 q 332 359 349 353 l 261 380 q 191 410 203 404 q 104 458 114 452 q 37 516 59 494 q 16 540 16 536 q 7 572 7 569 l 7 597 q 18 615 7 604 q 37 633 22 623 q 75 665 45 637 q 141 710 139 710 q 221 758 205 747 q 252 782 243 772 q 342 890 279 814 q 404 954 399 951 q 492 1011 479 1004 l 571 1046 l 640 1057 z "},"+":{"ha":2038,"x_min":7,"x_max":2035,"o":"m 640 1057 l 715 1057 q 841 1034 841 1038 l 980 990 q 1166 971 1040 981 q 1291 966 1166 968 l 1297 966 q 1415 994 1409 994 q 1581 1013 1488 1000 l 1739 1036 l 1830 1040 q 1925 1023 1919 1025 q 1967 990 1963 995 l 1998 941 q 2021 848 2021 863 q 2035 759 2035 780 q 2023 699 2030 712 q 2010 678 2019 685 q 1981 659 1990 659 q 1962 652 1967 652 q 1889 657 1889 654 q 1753 680 1778 671 q 1665 697 1722 688 l 1624 697 q 1544 688 1544 692 q 1500 671 1512 679 q 1480 654 1492 668 l 1455 621 q 1416 545 1449 612 q 1390 473 1413 541 l 1337 272 q 1309 193 1316 210 l 1272 113 q 1229 43 1248 71 q 1194 12 1198 12 q 1164 2 1194 8 l 1163 1 q 1133 13 1160 1 q 1061 94 1068 84 q 1006 170 1015 155 q 937 278 973 224 q 890 317 895 316 q 840 345 848 345 q 798 357 808 357 l 739 365 q 504 347 604 358 l 426 345 q 332 359 349 353 l 261 380 q 191 410 203 404 q 104 458 114 452 q 37 516 59 494 q 16 540 16 536 q 7 572 7 569 l 7 597 q 18 615 7 604 q 37 633 22 623 q 75 665 45 637 q 141 710 139 710 q 221 758 205 747 q 252 782 243 772 q 342 890 279 814 q 404 954 399 951 q 492 1011 479 1004 l 571 1046 l 640 1057 m 119 674 q 109 661 119 665 q 54 621 63 629 q 36 610 43 610 l 25 595 l 25 573 q 37 542 33 542 q 101 484 76 503 q 138 460 119 468 q 230 413 223 413 q 298 388 273 394 q 364 371 350 373 l 425 363 q 536 368 536 366 q 739 384 614 377 q 821 371 821 374 q 871 350 863 357 q 919 319 910 327 q 955 283 955 287 q 1031 164 989 232 q 1088 88 1078 100 q 1146 27 1145 27 l 1164 20 q 1189 29 1184 25 q 1225 70 1220 58 q 1263 137 1246 102 q 1303 229 1299 216 q 1340 358 1322 282 q 1375 489 1373 481 q 1402 559 1396 548 l 1435 623 q 1468 669 1461 661 q 1498 690 1479 682 q 1540 707 1503 696 q 1624 715 1540 711 l 1665 715 q 1786 691 1727 706 q 1921 671 1908 671 l 1960 670 q 1988 684 1988 679 q 2005 704 2005 696 q 2014 748 2011 713 l 2016 760 q 1997 880 2016 780 q 1980 937 1982 930 q 1949 982 1951 981 q 1914 1007 1917 1007 l 1830 1021 q 1712 1014 1729 1017 q 1466 980 1628 1000 q 1393 972 1405 976 l 1297 947 q 1142 955 1195 947 q 972 972 1039 962 q 811 1023 820 1023 l 715 1038 l 640 1038 q 566 1025 566 1029 q 487 988 495 993 l 410 936 q 336 855 349 871 q 256 760 300 808 q 182 713 212 728 q 119 674 142 690 z "},",":{"ha":1967,"x_min":1,"x_max":1909,"o":"m 1895 1127 q 1906 1114 1904 1127 l 1908 913 l 1909 907 q 1894 895 1909 897 q 1805 873 1842 886 q 1622 820 1626 820 q 1394 776 1422 780 q 1282 760 1284 760 q 1270 751 1280 758 q 1261 743 1266 745 l 1261 734 q 1289 713 1283 713 q 1451 652 1348 694 l 1480 639 l 1529 588 q 1576 543 1573 543 q 1609 520 1606 520 q 1693 504 1678 504 l 1859 481 q 1874 476 1865 476 q 1901 458 1899 460 q 1905 452 1901 456 l 1908 432 q 1904 417 1908 421 q 1903 412 1903 417 l 1902 408 q 1876 379 1876 379 q 1845 370 1869 374 q 1701 345 1810 359 q 1597 338 1675 338 l 1539 337 q 1396 349 1396 347 q 1373 359 1389 349 q 1362 370 1364 363 q 1346 393 1357 370 q 1294 481 1330 425 q 1282 490 1293 485 q 1244 514 1249 514 l 1159 534 l 1082 534 l 1010 527 q 942 537 942 534 q 859 616 881 599 q 765 642 770 642 q 644 660 650 660 l 500 660 l 395 625 q 433 547 419 569 q 460 518 458 518 q 523 486 492 504 q 555 439 555 445 q 574 390 568 416 q 585 363 578 370 q 608 333 606 334 q 672 298 651 313 q 687 286 687 290 q 692 277 692 284 q 703 253 699 268 q 724 210 703 248 q 739 188 736 188 q 769 174 767 174 q 888 199 871 197 l 927 199 q 960 187 935 199 q 1002 166 1002 170 q 1053 119 1048 119 q 1089 92 1086 92 l 1183 81 q 1374 109 1333 100 q 1409 115 1404 115 q 1417 113 1413 113 l 1418 113 q 1479 85 1474 88 q 1495 68 1492 75 q 1510 45 1507 45 l 1535 28 q 1617 42 1607 38 q 1689 62 1684 62 l 1691 62 q 1694 52 1692 62 q 1697 44 1697 48 q 1664 33 1695 41 q 1583 14 1603 14 l 1537 7 l 1521 11 l 1493 31 q 1472 65 1482 43 q 1413 92 1423 86 l 1409 93 q 1273 71 1331 78 l 1182 59 q 1076 73 1076 71 q 1022 115 1029 109 l 983 153 l 927 177 l 889 177 l 766 151 l 766 151 q 735 165 762 151 q 717 178 720 172 q 682 241 682 240 q 673 273 674 273 q 603 311 638 294 q 585 327 589 317 q 557 368 557 363 q 536 428 547 409 q 513 462 536 434 q 490 479 511 467 q 441 504 445 502 q 412 541 412 538 q 374 617 399 560 l 374 617 l 309 595 l 99 488 q 62 472 72 472 l 12 463 q 1 473 3 463 l 5 932 q 24 949 5 943 q 73 968 38 957 q 87 972 80 971 q 159 1001 111 986 q 260 1025 174 1009 l 333 1025 q 450 1037 345 1025 q 552 1058 529 1058 q 664 1068 623 1068 l 710 1070 q 791 1055 783 1059 l 854 1029 q 963 940 913 979 q 991 921 988 921 q 1048 910 1040 910 l 1137 907 q 1284 930 1225 918 q 1354 946 1324 936 q 1580 1017 1457 977 l 1683 1021 q 1793 1040 1788 1038 l 1841 1071 q 1889 1126 1884 1122 l 1895 1127 z "},"-":{"ha":1967,"x_min":1,"x_max":1909,"o":"m 1895 1127 q 1906 1114 1904 1127 l 1908 913 l 1909 907 q 1894 895 1909 897 q 1805 873 1842 886 q 1622 820 1626 820 q 1394 776 1422 780 q 1282 760 1284 760 q 1270 751 1280 758 q 1261 743 1266 745 l 1261 734 q 1289 713 1283 713 q 1451 652 1348 694 l 1480 639 l 1529 588 q 1576 543 1573 543 q 1609 520 1606 520 q 1693 504 1678 504 l 1859 481 q 1874 476 1865 476 q 1901 458 1899 460 q 1905 452 1901 456 l 1908 432 q 1904 417 1908 421 q 1903 412 1903 417 l 1902 408 q 1876 379 1876 379 q 1845 370 1869 374 q 1701 345 1810 359 q 1597 338 1675 338 l 1539 337 q 1396 349 1396 347 q 1373 359 1389 349 q 1362 370 1364 363 q 1346 393 1357 370 q 1294 481 1330 425 q 1282 490 1293 485 q 1244 514 1249 514 l 1159 534 l 1082 534 l 1010 527 q 942 537 942 534 q 859 616 881 599 q 765 642 770 642 q 644 660 650 660 l 500 660 l 395 625 q 433 547 419 569 q 460 518 458 518 q 523 486 492 504 q 555 439 555 445 q 574 390 568 416 q 585 363 578 370 q 608 333 606 334 q 672 298 651 313 q 687 286 687 290 q 692 277 692 284 q 703 253 699 268 q 724 210 703 248 q 739 188 736 188 q 769 174 767 174 q 888 199 871 197 l 927 199 q 960 187 935 199 q 1002 166 1002 170 q 1053 119 1048 119 q 1089 92 1086 92 l 1183 81 q 1374 109 1333 100 q 1409 115 1404 115 q 1417 113 1413 113 l 1418 113 q 1479 85 1474 88 q 1495 68 1492 75 q 1510 45 1507 45 l 1535 28 q 1617 42 1607 38 q 1689 62 1684 62 l 1691 62 q 1694 52 1692 62 q 1697 44 1697 48 q 1664 33 1695 41 q 1583 14 1603 14 l 1537 7 l 1521 11 l 1493 31 q 1472 65 1482 43 q 1413 92 1423 86 l 1409 93 q 1273 71 1331 78 l 1182 59 q 1076 73 1076 71 q 1022 115 1029 109 l 983 153 l 927 177 l 889 177 l 766 151 l 766 151 q 735 165 762 151 q 717 178 720 172 q 682 241 682 240 q 673 273 674 273 q 603 311 638 294 q 585 327 589 317 q 557 368 557 363 q 536 428 547 409 q 513 462 536 434 q 490 479 511 467 q 441 504 445 502 q 412 541 412 538 q 374 617 399 560 l 374 617 l 309 595 l 99 488 q 62 472 72 472 l 12 463 q 1 473 3 463 l 5 932 q 24 949 5 943 q 73 968 38 957 q 87 972 80 971 q 159 1001 111 986 q 260 1025 174 1009 l 333 1025 q 450 1037 345 1025 q 552 1058 529 1058 q 664 1068 623 1068 l 710 1070 q 791 1055 783 1059 l 854 1029 q 963 940 913 979 q 991 921 988 921 q 1048 910 1040 910 l 1137 907 q 1284 930 1225 918 q 1354 946 1324 936 q 1580 1017 1457 977 l 1683 1021 q 1793 1040 1788 1038 l 1841 1071 q 1889 1126 1884 1122 l 1895 1127 m 1585 996 q 1326 915 1468 956 q 1184 891 1198 891 q 1136 885 1165 888 q 1031 890 1031 888 l 978 901 q 844 1008 934 932 q 810 1023 842 1012 q 761 1040 772 1040 l 709 1048 q 599 1042 599 1044 q 501 1027 520 1034 q 427 1012 446 1012 q 333 1002 344 1002 l 260 1002 q 168 981 184 988 l 142 972 l 142 972 l 143 972 l 143 970 l 129 965 l 98 954 q 71 946 83 949 q 50 937 68 943 l 49 936 l 48 936 l 48 937 q 26 926 26 926 l 24 487 l 24 487 q 71 498 71 495 l 307 617 l 365 637 q 374 642 365 640 l 385 646 l 387 645 q 495 682 485 679 l 499 682 l 644 682 q 781 662 650 682 l 866 637 q 876 632 866 635 q 956 555 913 598 l 1010 549 l 1082 557 l 1160 557 q 1259 532 1166 557 l 1308 499 q 1367 401 1352 433 l 1378 381 q 1400 370 1398 370 l 1540 359 q 1689 365 1689 362 q 1822 387 1798 380 l 1862 396 q 1887 423 1883 420 q 1883 444 1884 443 q 1858 459 1860 459 q 1652 488 1670 484 q 1598 502 1602 499 q 1588 507 1598 503 q 1550 536 1551 534 q 1468 621 1493 591 q 1294 688 1398 652 q 1265 701 1270 695 q 1240 726 1240 722 l 1240 746 q 1249 761 1240 754 q 1275 781 1272 781 q 1447 807 1414 800 q 1627 844 1618 841 q 1843 907 1839 907 l 1887 916 l 1884 1086 q 1853 1053 1856 1055 l 1799 1019 q 1670 998 1680 998 l 1585 996 z "},"B":{"ha":5439,"x_min":50,"x_max":5312,"o":"m 2297 1943 l 2314 1942 l 2323 1943 l 2340 1942 l 2351 1943 l 2367 1942 l 2378 1943 l 2391 1942 l 2405 1943 l 2418 1942 l 2431 1943 l 2447 1942 l 2457 1943 l 2474 1942 l 2484 1943 l 2497 1942 l 2511 1943 l 2526 1942 l 2536 1943 l 2553 1942 l 2563 1943 l 2580 1942 l 2590 1943 l 2603 1942 l 2617 1943 l 2632 1942 l 2642 1943 l 2659 1942 l 2669 1943 l 2686 1942 l 2698 1943 l 2735 1937 l 2752 1938 l 2777 1934 l 2833 1934 q 2895 1928 2858 1929 q 2947 1919 2895 1922 l 2974 1912 l 2979 1914 l 3054 1899 q 3104 1882 3064 1891 q 3156 1865 3104 1877 q 3232 1836 3203 1853 l 3308 1809 q 3364 1795 3317 1809 l 3438 1786 l 3451 1788 l 3488 1782 l 3499 1783 l 3507 1783 l 3515 1782 l 3525 1783 l 3532 1783 l 3541 1782 l 3551 1783 l 3559 1783 l 3567 1782 l 3577 1783 l 3586 1783 l 3594 1782 l 3604 1783 l 3613 1783 l 3621 1782 l 3632 1783 l 3642 1783 l 3649 1782 l 3655 1783 l 3666 1783 l 3674 1782 l 3684 1783 l 3692 1783 l 3701 1782 l 3711 1783 l 3719 1783 l 3728 1782 l 3737 1783 l 3748 1783 l 3754 1782 l 3761 1783 l 3771 1783 l 3780 1782 l 3790 1783 l 3798 1783 l 3807 1782 l 3817 1783 l 3826 1783 l 3834 1782 l 3844 1783 l 3854 1783 l 3861 1782 l 3868 1783 l 3878 1783 l 3886 1782 l 3896 1783 l 3904 1783 l 3913 1782 l 3923 1783 l 3933 1783 l 3940 1782 l 3947 1783 l 3961 1783 l 3967 1782 l 3973 1783 l 3984 1783 l 3992 1782 l 4031 1788 l 4046 1786 l 4060 1788 l 4072 1786 l 4085 1788 l 4098 1786 l 4110 1788 l 4125 1786 l 4139 1788 l 4152 1786 l 4166 1788 l 4178 1786 l 4191 1788 l 4205 1786 l 4216 1788 l 4232 1786 l 4247 1788 q 4348 1767 4348 1772 l 4395 1758 q 4474 1735 4426 1746 l 4599 1696 q 4636 1684 4599 1689 q 4685 1655 4675 1655 q 4772 1594 4738 1611 q 4813 1568 4784 1581 q 4850 1548 4816 1560 q 4896 1522 4854 1541 l 4963 1455 l 5044 1367 q 5116 1275 5057 1337 l 5133 1246 q 5172 1198 5138 1230 l 5217 1143 q 5268 1064 5217 1139 l 5288 1008 q 5312 941 5288 1000 l 5312 938 l 5310 924 l 5312 912 l 5310 900 l 5312 888 l 5310 876 l 5312 865 l 5310 852 l 5312 840 l 5309 825 l 5310 823 l 5310 822 q 5288 749 5310 810 q 5269 703 5282 747 q 5204 607 5245 639 q 5098 529 5140 543 q 5022 491 5076 509 q 4951 459 4996 473 q 4870 422 4922 442 q 4813 396 4870 412 l 4776 376 q 4709 335 4769 368 q 4599 276 4706 331 q 4513 243 4560 258 q 4445 219 4512 241 q 4359 189 4392 195 q 4307 172 4340 179 q 4268 157 4302 165 q 4209 137 4251 142 q 4125 115 4209 130 l 4021 99 q 3963 91 4021 95 l 3903 76 q 3861 65 3885 76 l 3796 59 l 3796 60 l 3768 56 l 3756 58 l 3743 56 l 3729 58 l 3716 56 l 3702 58 l 3689 56 l 3687 56 l 3678 58 l 3669 56 l 3657 56 l 3650 58 l 3643 56 l 3630 56 l 3623 58 l 3617 56 l 3596 58 l 3559 52 l 3547 53 l 3507 48 l 3482 48 l 3450 45 l 3448 47 l 3446 47 q 3423 44 3439 44 l 3413 45 l 3399 44 l 3387 45 l 3374 44 l 3360 45 l 3322 39 l 3308 41 l 3295 39 l 3281 41 l 3267 39 l 3254 41 l 3242 39 l 3227 41 l 3214 39 l 3204 41 l 3162 36 l 3151 38 l 3084 32 l 3070 33 l 3031 27 l 3014 28 l 3004 27 l 2991 28 l 2978 27 l 2964 28 l 2952 27 l 2936 28 l 2926 27 l 2909 28 l 2898 27 l 2860 33 l 2843 32 l 2833 33 l 2819 32 l 2806 33 l 2792 32 l 2780 33 l 2764 32 l 2753 33 l 2736 32 l 2726 33 l 2716 32 l 2701 33 l 2683 32 l 2674 33 l 2662 32 l 2648 33 l 2634 32 l 2620 33 l 2607 32 l 2593 33 l 2578 32 l 2543 38 l 2528 36 l 2489 41 l 2475 39 l 2462 41 l 2448 39 l 2437 41 l 2422 39 l 2408 41 l 2396 39 l 2382 41 l 2370 39 l 2356 41 l 2344 39 l 2320 41 l 2315 39 l 2308 41 l 2297 41 l 2290 39 l 2281 41 l 2261 39 l 2249 41 l 2235 39 l 2081 65 q 2037 75 2072 71 q 1957 102 2027 81 l 1912 111 q 1860 125 1906 116 q 1811 140 1848 134 q 1741 160 1782 152 q 1692 170 1741 165 q 1600 197 1665 184 q 1512 225 1563 212 l 1451 242 q 1394 260 1421 248 l 1287 291 q 1243 308 1281 291 q 1184 325 1230 308 q 1137 346 1176 325 q 1082 372 1118 351 q 1024 395 1065 382 q 954 425 1008 408 q 905 445 945 433 q 802 502 839 473 l 726 559 q 694 585 715 566 q 652 611 684 585 q 603 637 608 631 l 564 669 q 492 733 554 670 q 458 766 471 742 q 394 827 412 793 q 357 867 377 838 q 298 916 332 884 q 235 958 287 920 q 121 1066 195 972 q 85 1128 92 1101 q 62 1214 62 1173 q 52 1258 57 1214 l 50 1258 l 52 1265 l 52 1278 l 50 1284 l 52 1290 l 52 1301 l 50 1307 l 52 1313 l 52 1325 l 50 1331 q 68 1406 55 1377 q 130 1514 124 1510 q 176 1589 163 1574 q 232 1645 193 1611 q 279 1682 232 1649 q 328 1712 284 1682 q 419 1763 388 1750 q 494 1803 475 1799 q 589 1841 555 1830 q 647 1858 591 1847 q 738 1882 654 1862 l 772 1887 l 785 1885 l 849 1898 l 932 1906 l 979 1911 l 992 1910 l 1029 1914 l 1122 1914 q 1213 1923 1173 1914 l 1228 1922 l 1242 1923 l 1250 1922 l 1294 1926 l 1301 1926 l 1308 1925 l 1314 1926 l 1328 1926 l 1335 1925 l 1341 1926 l 1352 1926 l 1360 1925 l 1370 1926 l 1380 1926 l 1387 1925 l 1394 1926 l 1407 1926 l 1413 1925 l 1451 1931 l 1466 1929 l 1479 1931 l 1493 1929 l 1506 1931 l 1520 1929 l 1533 1931 l 1545 1929 l 1558 1931 l 1571 1929 l 1586 1931 l 1599 1929 l 1613 1931 l 1624 1929 l 1638 1931 l 1651 1929 l 1666 1931 l 1676 1929 l 1776 1938 l 1781 1937 l 1791 1938 l 1800 1938 l 1808 1937 l 1818 1938 l 1822 1938 l 1835 1937 l 1849 1938 l 1862 1937 l 1875 1938 l 1887 1937 l 1904 1938 l 1914 1937 l 1927 1938 l 1941 1937 l 1958 1938 l 1968 1937 l 1982 1938 l 1993 1937 l 2010 1938 l 2020 1937 l 2037 1938 l 2047 1937 l 2064 1938 l 2075 1937 l 2088 1938 l 2100 1937 l 2117 1938 l 2127 1937 l 2140 1938 l 2153 1937 l 2170 1938 l 2180 1937 l 2194 1938 l 2205 1937 l 2222 1938 l 2233 1937 l 2249 1938 l 2261 1937 l 2297 1943 z "},"D":{"ha":5439,"x_min":50,"x_max":5312,"o":"m 2297 1943 l 2314 1942 l 2323 1943 l 2340 1942 l 2351 1943 l 2367 1942 l 2378 1943 l 2391 1942 l 2405 1943 l 2418 1942 l 2431 1943 l 2447 1942 l 2457 1943 l 2474 1942 l 2484 1943 l 2497 1942 l 2511 1943 l 2526 1942 l 2536 1943 l 2553 1942 l 2563 1943 l 2580 1942 l 2590 1943 l 2603 1942 l 2617 1943 l 2632 1942 l 2642 1943 l 2659 1942 l 2669 1943 l 2686 1942 l 2698 1943 l 2735 1937 l 2752 1938 l 2777 1934 l 2833 1934 q 2895 1928 2858 1929 q 2947 1919 2895 1922 l 2974 1912 l 2979 1914 l 3054 1899 q 3104 1882 3064 1891 q 3156 1865 3104 1877 q 3232 1836 3203 1853 l 3308 1809 q 3364 1795 3317 1809 l 3438 1786 l 3451 1788 l 3488 1782 l 3499 1783 l 3507 1783 l 3515 1782 l 3525 1783 l 3532 1783 l 3541 1782 l 3551 1783 l 3559 1783 l 3567 1782 l 3577 1783 l 3586 1783 l 3594 1782 l 3604 1783 l 3613 1783 l 3621 1782 l 3632 1783 l 3642 1783 l 3649 1782 l 3655 1783 l 3666 1783 l 3674 1782 l 3684 1783 l 3692 1783 l 3701 1782 l 3711 1783 l 3719 1783 l 3728 1782 l 3737 1783 l 3748 1783 l 3754 1782 l 3761 1783 l 3771 1783 l 3780 1782 l 3790 1783 l 3798 1783 l 3807 1782 l 3817 1783 l 3826 1783 l 3834 1782 l 3844 1783 l 3854 1783 l 3861 1782 l 3868 1783 l 3878 1783 l 3886 1782 l 3896 1783 l 3904 1783 l 3913 1782 l 3923 1783 l 3933 1783 l 3940 1782 l 3947 1783 l 3961 1783 l 3967 1782 l 3973 1783 l 3984 1783 l 3992 1782 l 4031 1788 l 4046 1786 l 4060 1788 l 4072 1786 l 4085 1788 l 4098 1786 l 4110 1788 l 4125 1786 l 4139 1788 l 4152 1786 l 4166 1788 l 4178 1786 l 4191 1788 l 4205 1786 l 4216 1788 l 4232 1786 l 4247 1788 q 4348 1767 4348 1772 l 4395 1758 q 4474 1735 4426 1746 l 4599 1696 q 4636 1684 4599 1689 q 4685 1655 4675 1655 q 4772 1594 4738 1611 q 4813 1568 4784 1581 q 4850 1548 4816 1560 q 4896 1522 4854 1541 l 4963 1455 l 5044 1367 q 5116 1275 5057 1337 l 5133 1246 q 5172 1198 5138 1230 l 5217 1143 q 5268 1064 5217 1139 l 5288 1008 q 5312 941 5288 1000 l 5312 938 l 5310 924 l 5312 912 l 5310 900 l 5312 888 l 5310 876 l 5312 865 l 5310 852 l 5312 840 l 5309 825 l 5310 823 l 5310 822 q 5288 749 5310 810 q 5269 703 5282 747 q 5204 607 5245 639 q 5098 529 5140 543 q 5022 491 5076 509 q 4951 459 4996 473 q 4870 422 4922 442 q 4813 396 4870 412 l 4776 376 q 4709 335 4769 368 q 4599 276 4706 331 q 4513 243 4560 258 q 4445 219 4512 241 q 4359 189 4392 195 q 4307 172 4340 179 q 4268 157 4302 165 q 4209 137 4251 142 q 4125 115 4209 130 l 4021 99 q 3963 91 4021 95 l 3903 76 q 3861 65 3885 76 l 3796 59 l 3796 60 l 3768 56 l 3756 58 l 3743 56 l 3729 58 l 3716 56 l 3702 58 l 3689 56 l 3687 56 l 3678 58 l 3669 56 l 3657 56 l 3650 58 l 3643 56 l 3630 56 l 3623 58 l 3617 56 l 3596 58 l 3559 52 l 3547 53 l 3507 48 l 3482 48 l 3450 45 l 3448 47 l 3446 47 q 3423 44 3439 44 l 3413 45 l 3399 44 l 3387 45 l 3374 44 l 3360 45 l 3322 39 l 3308 41 l 3295 39 l 3281 41 l 3267 39 l 3254 41 l 3242 39 l 3227 41 l 3214 39 l 3204 41 l 3162 36 l 3151 38 l 3084 32 l 3070 33 l 3031 27 l 3014 28 l 3004 27 l 2991 28 l 2978 27 l 2964 28 l 2952 27 l 2936 28 l 2926 27 l 2909 28 l 2898 27 l 2860 33 l 2843 32 l 2833 33 l 2819 32 l 2806 33 l 2792 32 l 2780 33 l 2764 32 l 2753 33 l 2736 32 l 2726 33 l 2716 32 l 2701 33 l 2683 32 l 2674 33 l 2662 32 l 2648 33 l 2634 32 l 2620 33 l 2607 32 l 2593 33 l 2578 32 l 2543 38 l 2528 36 l 2489 41 l 2475 39 l 2462 41 l 2448 39 l 2437 41 l 2422 39 l 2408 41 l 2396 39 l 2382 41 l 2370 39 l 2356 41 l 2344 39 l 2320 41 l 2315 39 l 2308 41 l 2297 41 l 2290 39 l 2281 41 l 2261 39 l 2249 41 l 2235 39 l 2081 65 q 2037 75 2072 71 q 1957 102 2027 81 l 1912 111 q 1860 125 1906 116 q 1811 140 1848 134 q 1741 160 1782 152 q 1692 170 1741 165 q 1600 197 1665 184 q 1512 225 1563 212 l 1451 242 q 1394 260 1421 248 l 1287 291 q 1243 308 1281 291 q 1184 325 1230 308 q 1137 346 1176 325 q 1082 372 1118 351 q 1024 395 1065 382 q 954 425 1008 408 q 905 445 945 433 q 802 502 839 473 l 726 559 q 694 585 715 566 q 652 611 684 585 q 603 637 608 631 l 564 669 q 492 733 554 670 q 458 766 471 742 q 394 827 412 793 q 357 867 377 838 q 298 916 332 884 q 235 958 287 920 q 121 1066 195 972 q 85 1128 92 1101 q 62 1214 62 1173 q 52 1258 57 1214 l 50 1258 l 52 1265 l 52 1278 l 50 1284 l 52 1290 l 52 1301 l 50 1307 l 52 1313 l 52 1325 l 50 1331 q 68 1406 55 1377 q 130 1514 124 1510 q 176 1589 163 1574 q 232 1645 193 1611 q 279 1682 232 1649 q 328 1712 284 1682 q 419 1763 388 1750 q 494 1803 475 1799 q 589 1841 555 1830 q 647 1858 591 1847 q 738 1882 654 1862 l 772 1887 l 785 1885 l 849 1898 l 932 1906 l 979 1911 l 992 1910 l 1029 1914 l 1122 1914 q 1213 1923 1173 1914 l 1228 1922 l 1242 1923 l 1250 1922 l 1294 1926 l 1301 1926 l 1308 1925 l 1314 1926 l 1328 1926 l 1335 1925 l 1341 1926 l 1352 1926 l 1360 1925 l 1370 1926 l 1380 1926 l 1387 1925 l 1394 1926 l 1407 1926 l 1413 1925 l 1451 1931 l 1466 1929 l 1479 1931 l 1493 1929 l 1506 1931 l 1520 1929 l 1533 1931 l 1545 1929 l 1558 1931 l 1571 1929 l 1586 1931 l 1599 1929 l 1613 1931 l 1624 1929 l 1638 1931 l 1651 1929 l 1666 1931 l 1676 1929 l 1776 1938 l 1781 1937 l 1791 1938 l 1800 1938 l 1808 1937 l 1818 1938 l 1822 1938 l 1835 1937 l 1849 1938 l 1862 1937 l 1875 1938 l 1887 1937 l 1904 1938 l 1914 1937 l 1927 1938 l 1941 1937 l 1958 1938 l 1968 1937 l 1982 1938 l 1993 1937 l 2010 1938 l 2020 1937 l 2037 1938 l 2047 1937 l 2064 1938 l 2075 1937 l 2088 1938 l 2100 1937 l 2117 1938 l 2127 1937 l 2140 1938 l 2153 1937 l 2170 1938 l 2180 1937 l 2194 1938 l 2205 1937 l 2222 1938 l 2233 1937 l 2249 1938 l 2261 1937 l 2297 1943 m 2280 1843 l 1773 1843 l 1692 1833 l 1676 1834 l 1663 1833 l 1651 1834 l 1638 1833 l 1624 1834 l 1613 1833 l 1597 1834 l 1584 1833 l 1572 1834 l 1558 1833 l 1545 1834 l 1531 1833 l 1518 1834 l 1506 1833 l 1485 1834 l 1479 1833 l 1469 1834 l 1427 1830 l 1420 1830 l 1413 1832 l 1407 1830 l 1397 1830 l 1388 1832 l 1378 1830 l 1363 1830 l 1361 1832 l 1360 1830 l 1336 1830 l 1335 1832 l 1333 1830 l 1299 1830 l 1269 1826 l 1259 1827 l 1238 1826 l 1230 1827 q 1127 1818 1170 1818 l 1126 1820 l 1124 1820 l 1114 1818 l 1107 1818 l 1099 1820 l 1088 1818 l 1080 1818 l 1072 1820 l 1061 1818 l 1053 1818 l 1044 1820 l 1008 1813 l 992 1815 l 952 1810 l 943 1810 l 942 1812 l 940 1810 l 932 1810 l 876 1801 l 864 1803 q 762 1789 816 1789 q 680 1769 736 1780 q 633 1755 666 1761 q 598 1742 629 1748 l 517 1706 l 465 1676 q 350 1592 350 1621 q 293 1565 331 1565 q 256 1523 277 1553 q 227 1473 251 1518 q 199 1426 214 1462 q 178 1392 199 1422 q 157 1319 157 1353 l 158 1307 l 157 1296 l 158 1281 l 157 1270 l 170 1213 l 168 1211 l 168 1209 q 192 1145 171 1191 q 248 1074 192 1139 q 301 1034 288 1034 q 374 983 335 1008 q 429 939 407 952 q 488 872 456 905 q 536 833 490 861 q 572 798 545 814 q 645 732 612 753 q 703 696 659 715 q 732 674 726 682 l 768 656 q 842 599 798 625 q 916 549 886 557 q 987 522 945 531 q 1038 498 994 513 l 1090 474 q 1169 437 1099 474 q 1196 429 1172 434 q 1245 407 1204 417 q 1293 395 1245 404 q 1442 347 1305 382 q 1486 334 1442 342 q 1562 313 1492 330 q 1611 298 1562 309 q 1687 276 1619 290 q 1742 262 1718 262 l 1786 248 l 1862 227 q 1899 215 1877 227 l 1954 201 q 2020 182 1973 201 q 2108 160 2081 164 q 2248 136 2124 153 l 2266 137 l 2277 136 l 2290 137 l 2304 136 l 2317 137 l 2329 136 l 2342 137 l 2356 136 l 2370 137 l 2382 136 l 2395 137 l 2410 136 l 2423 137 l 2437 136 l 2450 137 l 2462 136 l 2474 137 l 2489 136 l 2504 137 l 2540 131 l 2555 132 l 2599 127 l 2607 130 l 2620 127 l 2632 130 l 2649 127 l 2659 130 l 2676 127 l 2686 130 l 2703 127 l 2713 130 l 2726 127 l 2740 130 l 2753 127 l 2766 130 l 2782 127 l 2792 130 l 2809 127 l 2819 130 l 2833 127 l 2846 130 l 2860 127 l 2873 130 l 2910 123 l 2927 125 l 2937 123 l 2954 125 l 2964 123 l 2981 125 l 2991 123 l 3004 125 l 3018 123 l 3055 130 l 3065 127 l 3145 132 l 3146 131 l 3148 131 l 3187 137 l 3202 136 l 3215 137 l 3229 136 l 3242 137 l 3256 136 l 3269 137 l 3281 136 l 3293 137 l 3308 136 l 3345 140 l 3424 140 l 3485 144 l 3493 143 q 3567 149 3519 148 q 3584 152 3567 152 l 3596 151 l 3610 152 l 3623 151 l 3636 152 l 3650 151 l 3666 152 l 3676 151 l 3692 152 l 3702 151 l 3719 152 l 3729 151 l 3744 152 l 3754 151 q 3840 160 3792 157 q 3893 172 3844 168 q 4001 192 3893 179 q 4081 205 4028 202 q 4178 227 4159 216 q 4206 233 4179 231 q 4260 256 4217 242 q 4304 270 4260 262 q 4363 290 4317 280 q 4469 329 4418 315 l 4532 352 q 4629 404 4595 382 q 4709 448 4651 413 q 4799 492 4761 484 q 4883 532 4822 511 q 4951 562 4907 547 q 5020 595 4977 578 q 5079 629 5048 614 q 5123 669 5100 645 q 5177 758 5156 688 q 5206 833 5189 783 l 5204 837 l 5206 852 l 5204 865 l 5206 877 l 5204 889 l 5206 900 l 5204 913 l 5206 928 q 5182 998 5189 963 q 5168 1029 5176 1002 q 5130 1087 5158 1040 l 5074 1154 q 5049 1186 5058 1166 q 5017 1234 5024 1227 q 4953 1316 4968 1284 q 4886 1391 4924 1344 l 4824 1449 l 4784 1470 q 4736 1499 4776 1470 q 4687 1531 4730 1499 q 4618 1578 4660 1546 q 4587 1595 4610 1578 q 4533 1617 4577 1595 q 4344 1670 4365 1667 q 4298 1682 4333 1670 l 4228 1691 l 4218 1690 l 4201 1691 l 4191 1690 l 4176 1691 l 4166 1690 l 4149 1691 l 4139 1690 l 4122 1691 l 4112 1690 l 4098 1691 l 4085 1690 l 4070 1691 l 4060 1690 l 4046 1691 l 4011 1687 l 4001 1687 l 3994 1688 l 3987 1687 l 3973 1687 l 3967 1688 l 3961 1687 l 3947 1687 l 3940 1688 l 3933 1687 l 3920 1687 l 3913 1688 l 3906 1687 l 3895 1687 l 3888 1688 l 3881 1687 l 3868 1687 l 3861 1688 l 3854 1687 l 3840 1687 l 3834 1688 l 3827 1687 l 3813 1687 l 3807 1688 l 3800 1687 l 3790 1687 l 3781 1688 l 3771 1687 l 3761 1687 l 3754 1688 l 3748 1687 l 3735 1687 l 3728 1688 l 3721 1687 l 3711 1687 l 3702 1688 l 3692 1687 l 3682 1687 l 3676 1688 l 3669 1687 l 3655 1687 l 3649 1688 l 3642 1687 l 3628 1687 l 3621 1688 l 3615 1687 l 3601 1687 l 3594 1688 l 3588 1687 l 3577 1687 l 3569 1688 l 3559 1687 l 3549 1687 l 3542 1688 l 3535 1687 l 3522 1687 l 3515 1688 l 3508 1687 l 3495 1687 l 3488 1688 l 3482 1687 l 3475 1687 l 3433 1691 l 3423 1690 l 3325 1704 q 3273 1718 3320 1709 q 3148 1767 3227 1734 q 3052 1796 3086 1782 q 3008 1810 3044 1796 l 2959 1820 q 2912 1827 2946 1820 l 2910 1826 l 2909 1826 l 2863 1833 l 2814 1839 l 2804 1838 l 2801 1838 l 2787 1839 l 2774 1838 l 2732 1843 l 2721 1841 l 2684 1847 l 2667 1845 l 2658 1847 l 2641 1845 l 2631 1847 l 2615 1845 l 2605 1847 l 2589 1845 l 2578 1847 l 2561 1845 l 2551 1847 l 2534 1845 l 2524 1847 l 2509 1845 l 2499 1847 l 2482 1845 l 2472 1847 l 2455 1845 l 2445 1847 l 2429 1845 l 2418 1847 l 2405 1845 l 2391 1847 l 2376 1845 l 2366 1847 l 2349 1845 l 2339 1847 l 2322 1845 l 2311 1847 l 2280 1843 z "},"E":{"ha":2475,"x_min":17,"x_max":2414,"o":"m 850 1168 q 908 1159 873 1147 q 978 1181 943 1170 q 1113 1215 1013 1192 q 1352 1260 1213 1238 q 1762 1212 1490 1282 q 2180 1020 2035 1143 q 2245 807 2325 897 q 2081 673 2165 718 q 1898 578 1997 628 q 2007 345 1799 528 q 2340 110 2265 219 q 2233 35 2414 1 q 1922 84 2051 69 q 1671 197 1792 99 q 1523 290 1550 295 q 1394 261 1495 286 q 1217 250 1292 236 q 1013 371 1141 263 q 811 533 885 479 q 581 643 736 588 l 850 1168 m 602 682 q 818 585 736 635 q 1028 417 900 534 q 1236 295 1157 299 q 1409 313 1316 292 q 1533 343 1502 335 q 1692 244 1563 352 q 1937 130 1822 136 q 2194 84 2052 123 q 2283 107 2335 45 q 1972 302 2232 168 q 1844 599 1729 531 q 2041 707 1959 667 q 2194 820 2123 747 q 2136 997 2265 892 q 1745 1169 2006 1101 q 1348 1214 1484 1236 q 1110 1168 1213 1192 q 970 1135 1007 1145 q 899 1114 934 1125 q 833 1134 864 1103 l 602 682 m 42 1327 q 347 1159 165 1264 q 542 1002 547 1040 q 481 1007 538 964 q 309 1121 425 1050 q 77 1253 194 1193 q 17 1283 45 1270 l 42 1327 z "},"F":{"ha":2475,"x_min":318,"x_max":884,"o":"m 318 691 l 652 1345 l 713 1310 l 378 659 l 318 691 m 489 607 l 823 1261 l 884 1225 l 549 575 l 489 607 z "},"G":{"ha":2475,"x_min":581,"x_max":2414,"o":"m 850 1168 q 908 1159 873 1147 q 978 1181 943 1170 q 1113 1215 1013 1192 q 1352 1260 1213 1238 q 1762 1212 1490 1282 q 2180 1020 2035 1143 q 2245 807 2325 897 q 2081 673 2165 718 q 1898 578 1997 628 q 2007 345 1799 528 q 2340 110 2265 219 q 2233 35 2414 1 q 1922 84 2051 69 q 1671 197 1792 99 q 1523 290 1550 295 q 1394 261 1495 286 q 1217 250 1292 236 q 1013 371 1141 263 q 811 533 885 479 q 581 643 736 588 l 850 1168 z "},"H":{"ha":2475,"x_min":85,"x_max":2378,"o":"m 853 552 q 770 531 817 543 q 625 494 692 511 q 485 534 558 477 q 372 658 411 590 q 265 712 334 726 q 92 657 197 699 l 85 758 q 278 811 190 802 q 416 747 366 821 q 522 616 467 674 q 677 589 576 558 q 878 643 779 621 q 889 645 883 644 l 1482 969 l 1482 677 q 1658 676 1571 680 q 1825 650 1761 671 q 1944 581 1888 628 q 2042 534 2000 534 q 2120 547 2084 534 q 2174 570 2155 561 q 2213 586 2192 578 q 2248 609 2234 593 q 2324 664 2263 625 q 2321 577 2378 626 q 2229 506 2264 528 q 2150 466 2193 484 q 2059 448 2108 448 q 1980 467 2010 447 q 1912 514 1949 487 q 1804 567 1874 542 q 1630 595 1733 592 q 1482 595 1550 597 l 1481 272 l 853 552 z "},"I":{"ha":2034,"x_min":0,"x_max":2032,"o":"m 133 1164 q 121 1013 121 1090 q 135 850 121 929 l 1906 850 q 1921 1013 1921 929 q 1908 1164 1921 1090 l 133 1164 m 471 298 q 669 182 561 229 q 1019 111 832 111 q 1368 182 1204 111 q 1566 298 1476 229 l 471 298 m 1610 1693 q 1368 1847 1503 1787 q 1019 1919 1204 1919 q 669 1847 832 1919 q 427 1693 534 1787 l 1610 1693 m 166 726 q 191 662 177 693 q 352 408 252 519 l 1674 408 l 1674 396 q 1849 662 1783 511 q 1874 726 1862 693 l 166 726 m 1879 1284 q 1849 1363 1866 1324 q 1720 1578 1797 1481 l 317 1578 q 191 1363 241 1481 q 161 1284 174 1324 l 1879 1284 m 2032 1015 q 1952 619 2032 805 q 1734 297 1872 433 q 1411 80 1596 160 q 1016 0 1225 0 q 621 80 807 0 q 297 297 435 160 q 80 619 159 433 q 0 1015 0 805 q 80 1410 0 1223 q 297 1734 159 1596 q 621 1952 435 1872 q 1016 2032 807 2032 q 1411 1952 1225 2032 q 1734 1734 1596 1872 q 1952 1410 1872 1596 q 2032 1015 2032 1223 z "},"J":{"ha":2034,"x_min":362,"x_max":1750,"o":"m 1063 102 l 1165 196 l 1578 552 l 1647 474 l 1750 831 l 1388 745 l 1451 671 l 1270 517 l 1154 422 l 1154 1282 l 1360 1282 l 1361 1453 l 1156 1453 l 1155 1521 q 1168 1533 1162 1527 q 1203 1585 1190 1555 q 1216 1649 1216 1615 q 1203 1715 1216 1685 q 1167 1768 1190 1745 q 1115 1804 1145 1790 q 1051 1817 1085 1817 q 987 1804 1017 1817 q 936 1768 958 1790 q 901 1715 913 1745 q 888 1649 888 1685 q 901 1585 888 1615 q 936 1533 913 1555 q 950 1520 943 1526 l 949 1453 l 745 1455 l 747 1281 l 953 1281 l 950 437 l 947 439 l 661 682 l 724 755 l 362 842 l 465 485 l 534 563 l 947 207 l 1063 102 z "},"K":{"ha":2034,"x_min":0,"x_max":2032,"o":"m 1699 1158 l 1790 1088 l 1727 1088 l 342 1088 l 342 1224 l 1613 1225 l 1681 1175 l 1697 1158 l 1699 1158 m 1169 1400 l 1255 1496 l 1699 1159 l 1676 1137 l 1615 1090 l 1583 1089 l 1169 1400 m 1921 1013 q 1849 1363 1921 1198 q 1654 1651 1777 1528 q 1368 1847 1531 1775 q 1019 1919 1204 1919 q 669 1847 832 1919 q 383 1651 505 1775 q 191 1363 260 1528 q 121 1013 121 1198 q 191 662 121 827 q 383 375 260 497 q 669 182 505 253 q 1019 111 832 111 q 1368 182 1204 111 q 1654 375 1531 253 q 1849 662 1777 497 q 1921 1013 1921 827 m 2032 1015 q 1952 619 2032 805 q 1734 297 1872 433 q 1411 80 1596 160 q 1016 0 1225 0 q 621 80 807 0 q 297 297 435 160 q 80 619 159 433 q 0 1015 0 805 q 80 1410 0 1223 q 297 1734 159 1596 q 621 1952 435 1872 q 1016 2032 807 2032 q 1411 1952 1225 2032 q 1734 1734 1596 1872 q 1952 1410 1872 1596 q 2032 1015 2032 1223 m 427 806 l 336 875 l 399 876 l 1784 875 l 1784 739 l 513 738 l 445 789 l 429 805 l 427 806 m 957 564 l 871 467 l 427 804 l 450 826 l 511 873 l 543 874 l 957 564 z "},"L":{"ha":1356,"x_min":136,"x_max":1088,"o":"m 271 1356 l 271 2 l 136 2 l 136 1356 l 271 1356 m 1088 1967 l 1088 612 l 952 612 l 952 1967 l 1088 1967 m 676 1696 l 676 342 l 541 342 l 541 1696 l 676 1696 z "},"M":{"ha":1540,"x_min":27,"x_max":1513,"o":"m 27 0 l 777 1257 l 1513 0 l 27 0 m 1320 94 l 775 1022 l 209 94 l 1320 94 m 700 451 q 723 507 700 483 q 777 530 746 530 q 828 508 807 530 q 849 452 849 485 q 827 396 849 418 q 774 373 805 373 q 722 396 744 373 q 700 451 700 419 m 27 0 l 777 1257 l 1513 0 l 27 0 m 1320 94 l 775 1022 l 209 94 l 1320 94 m 700 451 q 723 507 700 483 q 777 530 746 530 q 828 508 807 530 q 849 452 849 485 q 827 396 849 418 q 774 373 805 373 q 722 396 744 373 q 700 451 700 419 z "},"N":{"ha":1618,"x_min":27,"x_max":1591,"o":"m 27 242 l 816 1566 l 1591 242 l 27 242 m 1388 341 l 814 1320 l 218 341 l 1388 341 m 558 1131 l 341 1251 l 291 1167 l 507 1047 l 558 1131 m 323 735 l 107 856 l 57 772 l 273 652 l 323 735 m 1086 241 l 1085 1 l 983 1 l 985 242 l 1086 241 m 619 241 l 619 0 l 517 0 l 517 241 l 619 241 m 1571 762 l 1352 644 l 1303 730 l 1522 846 l 1571 762 m 1342 1153 l 1124 1036 l 1075 1121 l 1293 1238 l 1342 1153 m 1571 762 l 1352 644 l 1303 730 l 1522 846 l 1571 762 m 1342 1153 l 1124 1036 l 1075 1121 l 1293 1238 l 1342 1153 m 1571 762 l 1352 644 l 1303 730 l 1522 846 l 1571 762 m 1342 1153 l 1124 1036 l 1075 1121 l 1293 1238 l 1342 1153 m 1571 762 l 1352 644 l 1303 730 l 1522 846 l 1571 762 m 1342 1153 l 1124 1036 l 1075 1121 l 1293 1238 l 1342 1153 m 1571 762 l 1352 644 l 1303 730 l 1522 846 l 1571 762 m 1342 1153 l 1124 1036 l 1075 1121 l 1293 1238 l 1342 1153 m 735 718 q 760 775 735 751 q 817 800 784 800 q 870 777 848 800 q 892 718 892 753 q 869 659 892 683 q 813 635 846 635 q 759 660 782 635 q 735 718 735 684 z "},"O":{"ha":1072,"x_min":27,"x_max":1044,"o":"m 110 85 l 110 932 l 958 932 l 958 85 l 110 85 m 1044 0 l 1044 1017 l 27 1017 l 27 0 l 1044 0 m 479 509 q 498 552 479 534 q 540 570 516 570 q 579 553 563 570 q 595 510 595 536 q 577 466 595 484 q 537 449 560 449 q 497 467 514 449 q 479 509 479 484 z "},"P":{"ha":1540,"x_min":27,"x_max":1513,"o":"m 1513 1257 l 764 0 l 27 1257 l 1513 1257 m 220 1163 l 765 235 l 1331 1163 l 220 1163 m 840 806 q 817 751 840 774 q 763 727 794 727 q 712 749 733 727 q 691 806 691 772 q 713 861 691 839 q 766 884 735 884 q 818 861 795 884 q 840 806 840 838 z "},"Q":{"ha":1411,"x_min":27,"x_max":1383,"o":"m 1044 0 l 1044 1356 l 1112 1356 l 1112 0 l 1044 0 m 298 0 l 298 1356 l 366 1356 l 366 0 l 298 0 m 1383 1019 l 27 1019 l 27 1087 l 1383 1087 l 1383 1019 m 1383 273 l 27 273 l 27 340 l 1383 340 l 1383 273 m 633 673 q 656 728 633 705 q 711 752 680 752 q 762 730 741 752 q 783 673 783 707 q 761 617 783 640 q 707 595 739 595 q 655 618 677 595 q 633 673 633 641 z "},"R":{"ha":1411,"x_min":27,"x_max":1383,"o":"m 27 681 q 225 1161 27 966 q 708 1356 424 1356 q 1185 1158 987 1356 q 1383 681 1383 960 q 1188 198 1383 397 q 708 0 992 0 q 225 198 424 0 q 27 681 27 397 m 117 640 l 117 610 q 203 377 132 534 q 715 92 371 123 q 1229 402 1067 123 q 1301 615 1255 437 l 1301 640 l 117 640 z "},"S":{"ha":1072,"x_min":27,"x_max":1044,"o":"m 27 1202 q 176 1553 27 1410 q 538 1695 324 1695 q 896 1551 748 1695 q 1044 1202 1044 1406 q 898 849 1044 994 q 538 705 751 705 q 176 849 324 705 q 27 1202 27 994 m 94 1172 l 94 1150 q 159 979 106 1095 q 543 772 286 793 q 929 998 808 793 q 983 1153 948 1023 l 983 1172 l 94 1172 m 502 68 l 1044 68 l 1044 0 l 502 0 l 502 68 m 581 762 l 581 0 l 502 0 l 502 762 l 581 762 z "},"T":{"ha":1411,"x_min":27,"x_max":1383,"o":"m 1382 610 l 1382 0 l 1314 0 l 1314 610 l 1382 610 m 1383 1289 l 27 1289 l 27 1356 l 1383 1356 l 1383 1289 m 1383 610 l 27 610 l 27 678 l 1383 678 l 1383 610 m 738 1288 l 738 678 l 670 678 l 670 1288 l 738 1288 m 97 610 l 97 0 l 29 0 l 29 610 l 97 610 z "},"U":{"ha":2089,"x_min":27,"x_max":2062,"o":"m 2062 1010 q 1981 609 2062 793 q 1763 289 1901 425 q 1439 77 1625 153 q 1042 0 1253 0 q 645 77 831 0 q 322 289 460 153 q 106 609 184 425 q 27 1010 27 793 q 106 1409 27 1223 q 322 1735 184 1596 q 645 1954 460 1874 q 1042 2035 831 2035 q 1439 1954 1253 2035 q 1763 1735 1625 1874 q 1981 1409 1901 1596 q 2062 1010 2062 1223 m 1944 1010 q 1872 1361 1944 1196 q 1678 1649 1801 1526 q 1391 1845 1555 1773 q 1042 1917 1227 1917 q 692 1845 856 1917 q 407 1649 529 1773 q 214 1361 284 1526 q 144 1010 144 1196 q 214 660 144 825 q 407 373 284 495 q 692 180 529 251 q 1042 109 856 109 q 1391 180 1227 109 q 1678 373 1555 251 q 1872 660 1801 495 q 1944 1010 1944 825 m 1530 1468 l 488 424 l 417 495 l 1459 1538 l 1530 1468 m 1618 1380 l 1362 1628 l 1433 1702 l 1689 1453 l 1618 1380 m 648 1539 l 1691 498 l 1620 426 l 576 1469 l 648 1539 m 734 1628 l 487 1373 l 414 1443 l 661 1699 l 734 1628 z "},"V":{"ha":2428,"x_min":27,"x_max":2401,"o":"m 1685 1418 l 643 374 l 573 445 l 1615 1488 l 1685 1418 m 1774 1330 l 1518 1577 l 1589 1651 l 1845 1403 l 1774 1330 m 804 1490 l 1847 448 l 1776 376 l 732 1419 l 804 1490 m 890 1577 l 642 1323 l 569 1394 l 817 1649 l 890 1577 m 128 102 l 128 1933 l 2298 1933 l 2298 102 l 128 102 m 2401 0 l 2401 2035 l 27 2035 l 27 0 l 2401 0 z "},"W":{"ha":2428,"x_min":27,"x_max":2401,"o":"m 2401 66 l 2187 285 l 2186 147 l 2342 0 l 2401 66 m 324 220 l 324 1028 l 324 1942 l 2105 1942 l 2105 219 l 2194 138 l 2194 1028 l 2194 2035 l 236 2035 l 236 143 l 324 220 m 86 0 l 242 147 l 241 285 l 27 66 l 86 0 m 1674 1487 l 671 455 l 603 526 l 1607 1556 l 1674 1487 m 825 1558 l 1829 528 l 1762 458 l 757 1488 l 825 1558 m 909 1645 l 670 1392 l 600 1462 l 839 1716 l 909 1645 m 1761 1400 l 1513 1645 l 1582 1717 l 1827 1472 l 1761 1400 z "},"X":{"ha":1284,"x_min":27,"x_max":1257,"o":"m 1102 1032 l 98 0 l 31 71 l 1034 1101 l 1102 1032 m 252 1103 l 1257 73 l 1190 3 l 184 1033 l 252 1103 m 336 1190 l 98 937 l 27 1007 l 267 1261 l 336 1190 m 1188 945 l 941 1190 l 1010 1262 l 1255 1017 l 1188 945 z "},"Y":{"ha":1750,"x_min":27,"x_max":1723,"o":"m 1723 1310 l 27 1310 l 27 1387 l 1723 1387 l 1723 1310 m 1723 308 l 27 308 l 27 385 l 1723 385 l 1723 308 m 411 1695 l 411 0 l 333 0 l 333 1695 l 411 1695 m 1413 1695 l 1413 0 l 1336 0 l 1336 1695 l 1413 1695 m 372 306 l 370 1345 l 1414 1348 l 372 306 z "},"Z":{"ha":1411,"x_min":27,"x_max":1383,"o":"m 705 1356 q 1039 1269 876 1356 q 1292 1019 1201 1181 q 1383 679 1383 857 q 1294 340 1383 502 q 1042 90 1204 179 q 705 0 881 0 q 368 90 529 0 q 117 340 207 179 q 27 679 27 502 q 118 1019 27 857 q 372 1269 210 1181 q 705 1356 535 1356 m 705 1289 q 407 1210 553 1289 q 178 985 261 1131 q 95 679 95 838 q 176 376 95 521 q 402 149 258 231 q 705 68 547 68 q 1008 149 863 68 q 1234 376 1153 231 q 1316 679 1316 521 q 1233 985 1316 838 q 1005 1210 1150 1131 q 705 1289 859 1289 m 504 673 q 568 818 504 756 q 716 880 631 880 q 854 821 797 880 q 911 675 911 763 q 851 531 911 589 q 707 473 791 473 q 565 532 626 473 q 504 673 504 591 z "},"[":{"ha":1121,"x_min":27,"x_max":1094,"o":"m 27 0 l 113 0 q 147 165 113 85 q 242 306 181 245 q 383 404 303 367 q 557 441 463 441 q 733 404 652 441 q 874 306 814 367 q 971 165 935 245 q 1008 0 1008 85 l 1094 0 q 939 366 1094 206 q 557 526 783 526 q 181 367 339 526 q 27 0 27 206 m 596 740 l 596 526 l 525 526 l 525 740 l 596 740 z "},"\\":{"ha":1139,"x_min":27,"x_max":1112,"o":"m 570 1017 q 820 952 697 1017 q 1010 764 942 886 q 1078 509 1078 642 q 1011 255 1078 377 q 822 67 944 134 q 570 0 701 0 q 317 67 437 0 q 129 255 196 134 q 61 509 61 377 q 130 764 61 642 q 320 951 198 886 q 570 1017 442 1017 m 570 950 q 354 893 459 950 q 189 730 248 836 q 129 509 129 624 q 187 290 129 395 q 351 127 245 185 q 570 68 456 68 q 788 127 684 68 q 952 290 893 185 q 1010 509 1010 395 q 951 730 1010 624 q 786 893 891 836 q 570 950 681 950 m 491 508 q 515 567 491 542 q 572 591 540 591 q 626 568 604 591 q 648 509 648 545 q 625 450 648 474 q 570 427 602 427 q 515 451 538 427 q 491 508 491 475 m 1112 0 l 570 0 l 570 68 l 1112 68 l 1112 0 m 570 949 l 27 949 l 27 1017 l 570 1017 l 570 949 z "},"]":{"ha":1750,"x_min":27,"x_max":1723,"o":"m 874 1187 q 1041 1143 960 1187 q 1167 1019 1122 1100 q 1213 848 1213 937 q 1168 679 1213 760 q 1042 554 1123 598 q 874 509 961 509 q 705 554 785 509 q 579 679 625 598 q 534 848 534 760 q 581 1019 534 937 q 707 1143 627 1100 q 874 1187 789 1187 m 874 1103 q 750 1069 810 1103 q 654 975 690 1036 q 620 848 620 914 q 654 723 620 783 q 748 628 688 662 q 874 594 808 594 q 1000 628 939 594 q 1094 723 1060 662 q 1128 848 1128 783 q 1094 975 1128 914 q 999 1069 1059 1036 q 874 1103 939 1103 m 916 0 l 577 0 l 577 85 l 916 85 l 916 0 m 832 68 l 832 509 l 916 509 l 916 68 l 832 68 m 832 1695 l 1171 1695 l 1171 1611 l 832 1611 l 832 1695 m 917 1627 l 917 1187 l 833 1187 l 833 1627 l 917 1627 m 1723 892 l 1723 553 l 1637 553 l 1637 892 l 1723 892 m 1654 806 l 1213 806 l 1213 890 l 1654 890 l 1654 806 m 27 806 l 27 1145 l 112 1145 l 112 806 l 27 806 m 94 892 l 534 892 l 534 806 l 94 806 l 94 892 z "},"^":{"ha":1411,"x_min":27,"x_max":1383,"o":"m 709 1651 l 709 0 l 635 0 l 635 1651 l 709 1651 m 1322 1625 l 54 1164 l 28 1234 l 1296 1695 l 1322 1625 m 1383 1 l 634 1 l 634 75 l 1383 75 l 1383 1 m 53 1695 l 1320 1234 l 1295 1164 l 27 1625 l 53 1695 z "},"a":{"ha":1406,"x_min":27,"x_max":1379,"o":"m 704 1017 q 954 951 832 1017 q 1144 764 1076 886 q 1213 509 1213 642 q 1145 255 1213 377 q 957 67 1078 134 q 704 0 836 0 q 451 67 572 0 q 263 255 330 134 q 195 509 195 377 q 264 764 195 642 q 454 951 332 886 q 704 1017 577 1017 m 705 949 q 488 892 593 949 q 324 730 383 836 q 264 509 264 624 q 322 290 264 395 q 486 127 381 186 q 705 68 591 68 q 922 127 818 68 q 1086 290 1027 186 q 1145 509 1145 395 q 1085 730 1145 624 q 921 892 1025 836 q 705 949 816 949 m 741 1264 l 741 518 l 670 518 l 670 1264 l 741 1264 m 27 155 l 673 528 l 709 467 l 62 94 l 27 155 m 1343 92 l 698 465 l 733 526 l 1379 153 l 1343 92 z "},"b":{"ha":1072,"x_min":27,"x_max":1044,"o":"m 27 0 l 27 1356 l 1044 1356 l 1044 0 l 27 0 m 977 67 l 977 1289 l 94 1289 l 94 67 l 977 67 m 916 272 l 536 1167 l 156 272 l 916 272 m 61 206 l 536 1325 l 1010 206 l 61 206 z "},"c":{"ha":1390,"x_min":27,"x_max":1362,"o":"m 705 4 l 705 682 l 27 682 l 27 4 l 705 4 m 1143 2035 l 328 696 l 406 654 l 1222 1992 l 1143 2035 m 1120 1990 l 1120 1303 l 1211 1303 l 1211 1990 l 1120 1990 m 956 1354 q 1016 1210 956 1270 q 1159 1149 1077 1149 q 1303 1208 1243 1149 q 1362 1355 1362 1268 q 1306 1499 1362 1442 q 1168 1556 1249 1556 q 1019 1496 1083 1556 q 956 1354 956 1436 z "},"d":{"ha":732,"x_min":27,"x_max":705,"o":"m 469 1540 l 196 1152 l 690 1152 l 346 612 l 304 692 l 545 1061 l 50 1061 l 401 1582 l 469 1540 m 366 678 q 606 579 507 678 q 705 338 705 480 q 606 99 705 198 q 366 0 507 0 q 126 99 225 0 q 27 338 27 198 q 125 579 27 480 q 366 678 224 678 m 366 611 q 173 532 252 611 q 94 340 94 453 q 173 148 94 227 q 366 68 252 68 q 557 148 477 68 q 636 340 636 227 q 557 532 636 453 q 366 611 478 611 m 148 1546 l 572 1716 l 530 1265 l 421 1533 l 148 1546 z "},"e":{"ha":3113,"x_min":0,"x_max":3076,"o":"m 3027 917 q 2794 798 2926 882 q 2707 754 2794 785 l 2707 741 l 2696 730 l 2688 730 l 2675 743 q 2477 694 2505 694 l 2306 692 l 2216 694 q 2135 787 2190 706 l 2064 882 q 1991 949 2014 949 q 1961 911 1974 949 q 2029 735 1961 864 l 2032 705 q 1969 646 2032 652 l 1948 646 q 1682 830 1833 646 q 1500 933 1587 933 q 1085 836 1452 933 q 825 800 912 800 q 559 884 741 800 q 301 925 430 925 q 65 830 193 925 l 49 814 l 49 809 l 0 827 l 0 830 q 57 884 0 844 q 301 974 180 974 l 317 974 q 689 882 507 974 q 830 849 788 849 q 1383 963 965 849 q 1506 985 1472 985 q 1668 914 1567 985 l 1785 787 q 1902 705 1878 707 q 1961 694 1940 694 q 1983 703 1976 694 q 1934 817 1983 724 q 1912 911 1912 881 q 1983 998 1912 972 l 1997 998 q 2159 836 2053 998 l 2230 743 l 2308 741 l 2469 743 q 2737 817 2510 743 q 2981 955 2863 906 q 3057 974 3043 974 q 3076 955 3066 974 l 3076 936 l 3027 915 l 3027 917 z "},"f":{"ha":3113,"x_min":163,"x_max":2949,"o":"m 179 882 q 193 871 191 876 l 193 860 q 176 849 187 849 q 163 860 164 854 l 163 863 q 179 882 163 882 m 418 882 q 431 871 430 876 l 431 860 l 420 849 q 401 868 401 849 q 418 882 406 882 m 1375 882 q 1392 865 1383 882 q 1378 849 1388 854 q 1359 868 1359 849 q 1375 882 1364 878 m 1617 882 q 1630 863 1630 878 q 1611 849 1626 849 l 1600 860 l 1600 871 q 1617 882 1606 882 m 293 760 l 304 760 l 312 751 l 312 741 l 301 730 l 293 730 l 282 741 l 282 749 l 293 760 m 532 760 l 543 760 q 553 743 553 754 q 543 730 548 731 l 532 730 q 521 746 521 735 q 532 760 526 758 m 770 760 l 781 760 l 792 749 q 781 730 792 734 l 779 730 q 760 746 760 730 q 770 760 765 758 m 1012 760 l 1020 760 l 1031 749 l 1031 741 l 1020 730 l 1012 730 l 1001 741 l 1001 749 l 1012 760 m 1251 760 l 1261 760 l 1270 751 l 1270 738 q 1253 730 1267 730 l 1251 730 q 1240 749 1240 734 l 1251 760 m 1489 760 l 1500 760 l 1511 749 l 1511 741 l 1500 730 l 1497 730 q 1478 743 1482 730 q 1489 760 1484 760 m 1728 760 l 1739 760 l 1750 749 l 1750 741 l 1739 730 l 1731 730 l 1720 741 l 1720 751 l 1728 760 m 2927 760 l 2938 760 q 2949 743 2943 760 q 2930 730 2945 730 l 2927 730 q 2916 749 2916 734 l 2927 760 m 174 640 l 182 640 l 193 629 l 193 621 l 182 610 l 174 610 l 163 621 l 163 629 l 174 640 m 412 640 l 423 640 l 431 632 l 431 618 q 415 610 429 610 l 412 610 l 401 621 l 401 629 l 412 640 m 651 640 l 662 640 q 673 624 673 635 q 662 610 667 612 l 651 610 q 640 627 640 616 q 651 640 646 639 m 892 640 l 901 640 l 911 629 l 911 621 l 901 610 l 892 610 l 882 621 l 882 629 l 892 640 m 1131 640 l 1142 640 l 1150 632 l 1150 618 l 1142 610 l 1131 610 l 1120 621 l 1120 629 l 1131 640 m 1370 640 l 1381 640 q 1392 624 1392 635 q 1381 610 1386 612 l 1370 610 q 1359 627 1359 616 q 1370 640 1364 639 m 1609 640 l 1619 640 l 1630 629 l 1630 621 l 1619 610 l 1609 610 l 1600 618 l 1600 632 l 1609 640 m 1850 640 l 1858 640 l 1869 629 l 1869 621 l 1858 610 l 1850 610 l 1839 621 l 1839 629 l 1850 640 m 2089 640 l 2100 640 l 2108 632 l 2108 618 q 2091 610 2105 610 l 2089 610 l 2078 621 l 2078 629 l 2089 640 m 2327 640 l 2338 640 q 2349 624 2349 635 q 2338 610 2344 612 l 2327 610 q 2317 627 2317 616 q 2327 640 2322 639 m 2569 640 l 2577 640 l 2588 629 l 2588 621 l 2577 610 l 2569 610 l 2558 621 l 2558 629 l 2569 640 m 2808 640 l 2816 640 l 2827 629 l 2827 621 l 2816 610 l 2808 610 l 2797 621 l 2797 629 l 2808 640 m 293 521 l 301 521 l 312 510 l 312 499 q 296 491 309 491 l 293 491 l 282 502 l 282 510 l 293 521 m 532 521 l 543 521 q 553 505 553 515 q 543 491 548 492 l 532 491 q 521 507 521 496 q 532 521 526 519 m 770 521 l 781 521 q 792 505 792 515 q 781 491 787 492 l 770 491 q 760 507 760 496 q 770 521 765 519 m 1012 521 l 1020 521 l 1031 510 l 1031 502 l 1020 491 l 1012 491 l 1001 502 l 1001 510 l 1012 521 m 1251 521 l 1253 521 q 1272 505 1272 521 q 1261 491 1267 492 l 1251 491 l 1240 502 q 1251 521 1240 517 m 1497 521 l 1500 521 l 1511 510 l 1511 502 l 1500 491 l 1489 491 q 1478 505 1484 492 q 1497 521 1478 521 m 1736 521 l 1739 521 l 1750 510 l 1750 502 l 1739 491 l 1728 491 l 1720 499 l 1720 513 q 1736 521 1723 521 m 1969 521 l 1978 521 l 1988 510 l 1988 499 q 1972 491 1986 491 l 1969 491 l 1959 502 l 1959 510 l 1969 521 m 2208 521 l 2219 521 q 2230 505 2230 515 q 2219 491 2224 492 l 2208 491 q 2197 507 2197 496 q 2208 521 2203 519 m 2447 521 l 2458 521 q 2469 502 2469 517 l 2458 491 l 2447 491 q 2436 507 2436 496 q 2447 521 2441 519 m 2688 521 l 2696 521 l 2707 510 l 2707 502 l 2696 491 l 2688 491 l 2677 502 l 2677 510 l 2688 521 m 2927 521 l 2930 521 q 2949 505 2949 521 q 2938 491 2943 492 l 2927 491 l 2916 502 q 2927 521 2916 517 m 182 401 l 193 391 l 193 380 l 184 372 l 171 372 q 163 388 163 374 l 163 391 q 182 401 168 401 m 420 401 l 431 391 l 431 380 l 423 372 l 410 372 q 401 388 401 374 q 420 401 406 401 m 654 401 q 673 382 673 401 l 662 372 l 651 372 q 640 391 640 376 l 654 401 m 898 401 q 911 391 910 396 l 911 388 q 903 372 911 374 l 890 372 l 882 380 l 882 391 q 898 401 887 401 m 1139 401 q 1153 385 1149 397 q 1142 372 1147 373 l 1128 372 q 1120 388 1120 374 q 1139 401 1124 401 m 1378 401 q 1392 385 1388 397 q 1381 372 1386 373 l 1370 372 l 1359 382 q 1378 401 1359 401 m 1611 401 q 1630 382 1630 401 q 1622 372 1626 372 l 1609 372 l 1600 380 l 1600 391 l 1611 401 m 1855 401 q 1869 391 1868 396 l 1869 380 l 1861 372 l 1847 372 q 1839 388 1839 374 l 1839 391 q 1855 401 1845 401 m 2097 401 l 2108 391 l 2108 380 l 2100 372 l 2086 372 q 2078 388 2078 374 q 2097 401 2082 401 m 2330 401 q 2349 382 2349 401 l 2338 372 l 2327 372 q 2317 391 2317 376 l 2330 401 m 2574 401 q 2588 391 2587 396 l 2588 388 q 2580 372 2588 374 l 2566 372 l 2558 380 l 2558 391 q 2574 401 2563 401 m 2813 401 q 2827 391 2825 396 l 2827 380 l 2818 372 l 2805 372 l 2797 380 l 2797 391 q 2813 401 2802 401 m 298 282 q 312 271 311 277 l 312 260 q 296 250 307 250 q 282 269 282 254 q 298 282 287 282 m 534 282 q 553 260 553 282 l 537 250 q 521 263 526 254 l 521 269 l 534 282 m 773 282 q 792 263 792 282 q 776 250 788 250 q 760 266 768 250 q 773 282 764 277 m 1017 282 q 1031 271 1029 277 l 1031 260 q 1015 250 1025 250 q 1001 260 1002 255 l 1001 271 q 1017 282 1006 282 m 1259 282 q 1272 266 1269 277 q 1253 250 1266 250 q 1240 269 1240 254 q 1259 282 1244 282 m 1497 282 q 1511 263 1511 278 q 1495 250 1507 250 q 1478 266 1487 250 q 1497 282 1485 282 m 1736 282 q 1750 263 1750 278 q 1733 250 1746 250 q 1720 260 1721 255 l 1720 271 q 1736 282 1725 282 m 1975 282 q 1988 271 1987 277 l 1988 260 q 1972 250 1983 250 q 1959 269 1959 254 q 1975 282 1963 282 m 2211 282 q 2230 263 2230 282 q 2214 250 2225 254 q 2197 263 2203 254 l 2197 269 l 2211 282 m 2450 282 q 2469 263 2469 282 q 2452 250 2464 250 q 2436 266 2444 250 q 2450 282 2440 277 m 2694 282 q 2707 271 2706 277 l 2707 260 q 2691 250 2702 250 q 2677 260 2679 255 l 2677 271 q 2694 282 2683 282 m 2935 282 q 2949 266 2945 277 q 2930 250 2943 250 q 2916 269 2916 254 q 2935 282 2920 282 m 179 163 q 193 152 191 157 l 193 141 q 176 130 187 130 q 163 149 163 134 q 179 163 168 163 m 418 163 q 431 152 430 157 l 431 141 q 415 130 426 130 q 401 149 401 134 q 418 163 406 163 m 659 163 q 673 144 673 159 q 654 130 669 130 q 640 146 640 138 q 659 163 646 163 m 898 163 q 911 152 910 157 l 911 141 q 895 130 906 130 q 882 141 883 136 l 882 152 q 898 163 887 163 m 1137 163 q 1153 146 1145 163 q 1139 130 1149 136 q 1120 149 1120 130 q 1137 163 1125 163 m 1375 163 q 1392 146 1383 163 q 1378 130 1388 136 q 1359 149 1359 130 q 1375 163 1364 163 m 1617 163 q 1630 144 1630 159 q 1614 130 1626 130 q 1600 141 1602 136 l 1600 152 q 1617 163 1606 163 m 1855 163 q 1869 152 1868 157 l 1869 141 q 1853 130 1864 130 q 1839 149 1839 134 q 1855 163 1844 163 m 2094 163 q 2108 152 2106 157 l 2108 141 q 2091 130 2102 130 q 2078 149 2078 134 q 2094 163 2083 163 m 2338 163 l 2349 149 q 2330 130 2349 130 q 2317 146 2317 138 q 2338 163 2322 163 m 2574 163 q 2588 152 2587 157 l 2588 141 q 2572 130 2582 130 q 2558 141 2559 136 l 2558 152 q 2574 163 2563 163 m 2813 163 q 2827 152 2825 157 l 2827 141 q 2810 130 2821 130 q 2797 141 2798 136 l 2797 152 q 2813 163 2802 163 z "},"g":{"ha":3113,"x_min":0,"x_max":3082,"o":"m 1997 998 q 2159 836 2053 998 l 2230 743 l 2308 741 l 2469 743 q 2737 817 2510 743 q 2981 955 2863 906 q 3057 974 3043 974 q 3076 955 3066 974 l 3082 19 q 3065 0 3077 7 l 22 0 q 0 16 7 0 l 0 830 q 57 884 0 844 q 301 974 180 974 l 317 974 q 689 882 507 974 q 830 849 788 849 q 1383 963 965 849 q 1506 985 1472 985 q 1668 914 1567 985 l 1785 787 q 1902 705 1878 707 q 1961 694 1940 694 q 1983 703 1976 694 q 1934 817 1983 724 q 1912 911 1912 881 q 1983 998 1912 972 l 1997 998 z "},"h":{"ha":2035,"x_min":0,"x_max":2032,"o":"m 1297 1615 q 1685 1520 1685 1574 l 1685 1496 q 1642 1468 1674 1468 q 1320 1525 1423 1525 l 1297 1525 l 1297 1478 l 1301 1454 l 1297 1454 l 1301 1449 l 1301 1444 l 1306 1147 l 1311 1133 l 1306 1133 l 1311 1128 l 1311 996 q 1831 854 1831 874 l 1836 831 q 1793 788 1826 788 l 1278 920 l 956 557 q 1434 316 1434 329 l 1438 298 q 1400 255 1438 255 l 1391 255 q 601 652 852 505 q 331 1105 331 831 q 876 1553 331 1436 q 1292 1615 953 1586 l 1297 1615 m 416 1109 q 804 637 416 808 q 885 600 865 600 q 1230 987 947 681 l 1225 991 l 1225 996 l 1211 1520 l 1206 1520 q 653 1397 1006 1520 q 416 1109 416 1290 m 1921 1013 q 1849 1363 1921 1198 q 1654 1651 1777 1528 q 1368 1847 1531 1775 q 1019 1919 1204 1919 q 669 1847 832 1919 q 383 1651 505 1775 q 191 1363 260 1528 q 121 1013 121 1198 q 191 662 121 827 q 383 375 260 497 q 669 182 505 253 q 1019 111 832 111 q 1368 182 1204 111 q 1654 375 1531 253 q 1849 662 1777 497 q 1921 1013 1921 827 m 2032 1015 q 1952 619 2032 805 q 1734 297 1872 433 q 1411 80 1596 160 q 1016 0 1225 0 q 621 80 807 0 q 297 297 435 160 q 80 619 159 433 q 0 1015 0 805 q 80 1410 0 1223 q 297 1734 159 1596 q 621 1952 435 1872 q 1016 2032 807 2032 q 1411 1952 1225 2032 q 1734 1734 1596 1872 q 1952 1410 1872 1596 q 2032 1015 2032 1223 z "},"i":{"ha":2035,"x_min":416,"x_max":1230,"o":"m 416 1109 q 804 637 416 808 q 885 600 865 600 q 1230 987 947 681 l 1225 991 l 1225 996 l 1211 1520 l 1206 1520 q 653 1397 1006 1520 q 416 1109 416 1290 z "},"j":{"ha":1750,"x_min":27,"x_max":1723,"o":"m 872 1695 q 1476 1447 1229 1695 q 1723 847 1723 1199 q 1474 248 1723 496 q 872 0 1225 0 q 275 248 523 0 q 27 847 27 496 q 273 1447 27 1199 q 872 1695 519 1695 m 873 1630 q 320 1402 548 1630 q 93 850 93 1174 q 320 298 93 526 q 873 71 548 71 q 1425 298 1197 71 q 1653 850 1653 526 q 1426 1402 1653 1174 q 873 1630 1199 1630 m 1486 814 l 265 814 l 265 884 l 1486 884 l 1486 814 m 910 1459 l 910 239 l 839 239 l 839 1459 l 910 1459 z "},"k":{"ha":1411,"x_min":27,"x_max":1383,"o":"m 704 1356 q 1186 1158 989 1356 q 1383 677 1383 960 q 1185 198 1383 397 q 704 0 987 0 q 225 198 424 0 q 27 677 27 397 q 224 1158 27 960 q 704 1356 422 1356 m 704 1290 q 272 1112 450 1290 q 94 680 94 934 q 272 248 94 426 q 704 69 450 69 q 1136 248 958 69 q 1314 680 1314 426 q 1137 1112 1314 934 q 704 1290 960 1290 m 739 1695 l 739 0 l 671 0 l 671 1695 l 739 1695 m 27 68 l 1383 68 l 1383 0 l 27 0 l 27 68 m 671 2035 l 1116 1493 l 671 1487 l 671 2035 z "},"l":{"ha":1750,"x_min":27,"x_max":1723,"o":"m 874 1695 q 1292 1586 1088 1695 q 1609 1273 1495 1476 q 1723 849 1723 1071 q 1611 425 1723 627 q 1296 111 1499 222 q 874 0 1094 0 q 453 111 654 0 q 140 425 252 222 q 27 849 27 627 q 141 1273 27 1071 q 458 1586 255 1476 q 874 1695 663 1695 m 874 1619 q 497 1519 681 1619 q 210 1235 314 1420 q 104 850 104 1050 q 207 466 104 649 q 492 180 309 282 q 874 77 675 77 q 1258 180 1075 77 q 1543 466 1440 282 q 1646 850 1646 649 q 1541 1235 1646 1050 q 1253 1519 1437 1420 q 874 1619 1069 1619 m 127 456 l 728 802 l 767 736 l 165 389 l 127 456 m 874 1041 q 969 1016 924 1041 q 1041 944 1015 990 q 1067 848 1067 898 q 1042 752 1067 798 q 971 681 1017 706 q 874 655 925 655 q 779 681 825 655 q 707 752 733 706 q 682 848 682 798 q 708 945 682 898 q 780 1016 734 990 q 874 1041 826 1041 m 874 943 q 828 931 851 943 q 791 895 804 919 q 778 848 778 873 q 791 800 778 823 q 827 765 804 777 q 874 752 850 752 q 923 765 899 752 q 958 800 946 777 q 970 848 970 823 q 958 896 970 873 q 922 931 945 919 q 874 943 899 943 m 914 1685 l 914 991 l 837 991 l 837 1685 l 914 1685 m 1588 395 l 988 741 l 1027 809 l 1627 462 l 1588 395 z "},"m":{"ha":1750,"x_min":27,"x_max":1723,"o":"m 1319 1076 q 1281 1271 1319 1196 q 930 1440 1196 1429 l 604 1440 l 604 153 l 715 153 l 715 669 l 903 669 q 1194 777 1110 684 q 1319 1076 1304 884 m 1197 1084 q 836 785 1177 773 l 715 788 l 715 1335 l 899 1335 q 1197 1084 1202 1333 m 874 1695 q 1292 1586 1088 1695 q 1609 1273 1495 1476 q 1723 849 1723 1071 q 1611 425 1723 627 q 1296 111 1499 222 q 874 0 1094 0 q 453 111 654 0 q 140 425 252 222 q 27 849 27 627 q 141 1273 27 1071 q 458 1586 255 1476 q 874 1695 663 1695 m 874 1619 q 497 1519 681 1619 q 210 1235 314 1420 q 104 850 104 1050 q 207 466 104 649 q 492 180 309 282 q 874 77 675 77 q 1258 180 1075 77 q 1543 466 1440 282 q 1646 850 1646 649 q 1541 1235 1646 1050 q 1253 1519 1437 1420 q 874 1619 1069 1619 z "},"n":{"ha":2035,"x_min":0,"x_max":2031,"o":"m 443 282 q 536 261 517 267 l 661 225 q 930 100 901 111 l 1099 45 q 1240 20 1234 20 l 1334 17 q 1497 31 1487 28 l 1665 66 q 1932 146 1742 87 q 2023 180 1979 165 q 2031 171 2031 178 q 2016 160 2031 163 q 1925 127 1936 130 q 1662 48 1745 71 q 1479 11 1485 11 l 1334 0 q 1226 4 1226 3 l 1087 31 l 914 87 q 646 213 654 210 q 496 254 501 254 l 443 265 q 243 258 357 265 l 121 236 q 8 199 39 209 q 0 208 1 199 q 18 219 0 216 q 123 254 106 249 q 256 276 246 276 q 443 282 374 282 z "},"o":{"ha":1275,"x_min":27,"x_max":1248,"o":"m 1248 0 l 27 0 l 27 68 l 1248 68 l 1248 0 m 909 54 l 909 792 l 366 792 l 366 54 l 909 54 m 299 54 l 299 867 l 977 867 l 977 54 l 299 54 m 637 1408 q 830 1328 751 1408 q 909 1136 909 1249 q 829 944 909 1023 q 637 865 750 865 q 446 944 525 865 q 366 1136 366 1023 q 445 1328 366 1249 q 637 1408 524 1408 m 637 1340 q 493 1281 552 1340 q 433 1137 433 1221 q 493 992 433 1052 q 637 933 552 933 q 781 992 722 933 q 840 1137 840 1052 q 781 1281 840 1221 q 637 1340 722 1340 z "},"p":{"ha":1275,"x_min":27,"x_max":1248,"o":"m 197 746 l 197 1288 l 1078 1288 l 1078 746 l 197 746 m 1146 678 l 1146 1356 l 129 1356 l 129 678 l 1146 678 m 197 678 l 197 0 l 129 0 l 129 678 l 197 678 m 1146 678 l 1146 0 l 1078 0 l 1078 678 l 1146 678 m 27 1289 l 1248 1289 l 1248 1356 l 27 1356 l 27 1289 z "},"q":{"ha":1411,"x_min":27,"x_max":1383,"o":"m 27 678 l 705 1356 l 1383 678 l 27 678 m 436 678 l 436 0 l 366 0 l 366 678 l 436 678 m 1046 678 l 1046 0 l 977 0 l 977 678 l 1046 678 z "},"r":{"ha":1072,"x_min":27,"x_max":1044,"o":"m 807 68 l 807 746 l 264 746 l 264 68 l 807 68 m 1044 0 l 27 0 l 27 68 l 1044 68 l 1044 0 m 27 746 l 29 782 q 525 1356 404 953 l 545 1356 q 1044 782 674 953 l 1044 746 l 27 746 z "},"s":{"ha":1411,"x_min":27,"x_max":1383,"o":"m 196 610 q 27 665 54 635 q 699 1356 376 758 q 1383 665 1062 758 q 1205 610 1353 635 l 196 610 m 740 678 l 740 0 l 672 0 l 672 678 l 740 678 m 27 69 l 1383 69 l 1383 1 l 27 1 l 27 69 z "},"t":{"ha":1072,"x_min":27,"x_max":1044,"o":"m 129 0 l 536 2035 l 943 0 l 129 0 m 1044 0 l 27 0 l 27 68 l 1044 68 l 1044 0 m 977 746 l 95 746 l 95 814 l 977 814 l 977 746 m 875 1492 l 197 1492 l 197 1560 l 875 1560 l 875 1492 z "},"u":{"ha":901,"x_min":27,"x_max":874,"o":"m 44 408 q 172 692 44 570 q 467 814 299 814 q 745 700 631 814 q 858 410 858 585 q 739 118 858 237 q 451 0 619 0 q 166 120 288 0 q 44 408 44 241 m 874 1204 l 27 1204 l 27 1272 l 874 1272 l 874 1204 m 485 1662 l 485 814 l 417 814 l 417 1662 l 485 1662 z "},"v":{"ha":868,"x_min":27,"x_max":841,"o":"m 486 814 q 748 667 656 773 q 841 408 841 562 q 723 119 841 237 q 435 0 604 0 q 145 119 264 0 q 27 408 27 237 q 122 670 27 562 q 384 814 218 779 l 486 814 m 178 1046 q 422 1041 311 1002 q 597 1188 534 1079 q 633 1444 669 1310 q 476 1647 597 1578 l 513 1712 q 704 1463 661 1626 q 663 1152 748 1300 q 448 971 585 1017 q 149 978 311 925 l 178 1046 m 469 994 l 469 790 l 401 790 l 401 994 l 469 994 z "},"w":{"ha":970,"x_min":27,"x_max":943,"o":"m 469 1383 l 469 814 l 399 814 l 399 1383 l 469 1383 m 400 1712 q 943 1356 555 1547 l 400 1356 l 400 1712 m 392 747 q 174 627 254 718 q 94 408 94 537 q 193 167 94 266 q 434 68 292 68 q 674 167 576 68 q 772 408 772 266 q 695 625 772 536 q 477 747 618 713 l 392 747 m 486 814 q 748 668 656 774 q 841 408 841 562 q 723 119 841 237 q 435 0 604 0 q 145 119 264 0 q 27 408 27 237 q 122 671 27 563 q 384 814 218 779 l 486 814 z "},"x":{"ha":868,"x_min":27,"x_max":841,"o":"m 95 407 q 196 168 95 268 q 434 68 298 68 q 673 166 574 68 q 773 410 773 265 q 679 650 773 555 q 448 746 584 746 q 201 644 307 746 q 95 407 95 543 m 841 1289 l 27 1289 l 27 1356 l 841 1356 l 841 1289 m 468 1695 l 468 814 l 400 814 l 400 1695 l 468 1695 m 27 408 q 155 692 27 570 q 450 814 282 814 q 728 700 614 814 q 841 410 841 585 q 722 118 841 237 q 434 0 602 0 q 149 120 271 0 q 27 408 27 241 z "},"y":{"ha":1411,"x_min":27,"x_max":1383,"o":"m 659 924 q 266 752 417 921 q 95 436 115 583 l 27 465 q 230 828 49 640 q 705 1017 411 1017 q 1180 828 998 1017 q 1383 463 1363 638 l 1315 436 q 1144 752 1296 583 q 728 924 992 921 l 659 924 m 1214 0 l 197 0 l 197 73 l 1214 73 l 1214 0 m 739 798 l 739 73 l 672 73 l 672 798 l 739 798 z "},"z":{"ha":1476,"x_min":0,"x_max":0,"o":""},"":{"ha":1072,"x_min":27,"x_max":1044,"o":"m 1044 0 l 27 0 l 27 68 l 1044 68 l 1044 0 m 570 1017 l 570 0 l 502 0 l 502 1017 l 570 1017 z "},"":{"ha":1072,"x_min":27,"x_max":1044,"o":"m 851 1017 q 971 967 922 1017 q 1021 848 1021 918 q 971 727 1021 777 q 851 678 922 678 q 731 727 781 678 q 682 848 682 777 q 731 967 682 918 q 851 1017 780 1017 m 851 949 q 779 920 808 949 q 749 848 749 890 q 779 776 749 806 q 851 746 808 746 q 923 776 893 746 q 953 848 953 806 q 923 920 953 890 q 851 949 894 949 m 1044 0 l 27 0 l 27 68 l 1044 68 l 1044 0 m 570 1017 l 570 0 l 502 0 l 502 1017 l 570 1017 z "},"":{"ha":1004,"x_min":27,"x_max":977,"o":"m 498 1373 q 647 1344 578 1373 q 765 1267 715 1316 q 845 1150 815 1218 q 875 1018 875 1082 l 803 1018 q 783 1107 789 1093 q 726 1200 768 1153 q 648 1266 684 1248 q 586 1294 613 1284 q 500 1310 559 1304 q 395 1283 428 1301 q 314 1225 362 1266 q 236 1128 267 1185 q 204 1018 206 1072 l 130 1017 q 146 1109 126 1058 q 203 1213 169 1165 q 282 1296 237 1261 q 381 1352 326 1331 q 498 1373 436 1373 m 878 1017 l 878 68 l 807 68 l 807 1017 l 878 1017 m 27 68 l 977 68 l 977 0 l 27 0 l 27 68 m 201 1017 l 201 68 l 129 68 l 129 1017 l 201 1017 z "},"":{"ha":1411,"x_min":27,"x_max":1383,"o":"m 1214 751 l 705 1242 l 197 751 l 1214 751 m 400 678 l 400 0 l 332 0 l 332 678 l 400 678 m 1078 678 l 1078 0 l 1010 0 l 1010 678 l 1078 678 m 27 678 l 705 1356 l 1383 678 l 27 678 z "},"":{"ha":1275,"x_min":27,"x_max":1248,"o":"m 1248 0 l 27 0 l 27 68 l 1248 68 l 1248 0 m 1146 1356 l 1146 0 l 1078 0 l 1078 1356 l 1146 1356 m 197 1356 l 197 0 l 129 0 l 129 1356 l 197 1356 m 1078 1085 l 197 1085 l 197 1156 l 1078 1156 l 1078 1085 m 671 1356 l 671 1085 l 604 1085 l 604 1356 l 671 1356 z "},"":{"ha":732,"x_min":27,"x_max":705,"o":"m 27 0 q 661 1017 102 509 q 705 0 441 509 l 27 0 z "},"":{"ha":1354,"x_min":275,"x_max":945,"o":"m 945 5 l 275 264 l 615 844 l 945 5 z "},"":{"ha":1356,"x_min":348,"x_max":1008,"o":"m 802 10 l 348 810 l 1008 649 l 802 10 z "},"":{"ha":1218,"x_min":98,"x_max":958,"o":"m 958 521 l 558 21 l 98 566 l 958 521 z "},"":{"ha":1411,"x_min":27,"x_max":1383,"o":"m 704 1373 q 1186 1174 989 1373 q 1383 693 1383 975 q 1185 214 1383 412 q 704 16 987 16 q 225 214 424 16 q 27 693 27 412 q 224 1174 27 975 q 704 1373 421 1373 m 704 1306 q 272 1128 450 1306 q 94 695 94 949 q 272 264 94 442 q 704 85 450 85 q 1136 264 957 85 q 1314 695 1314 442 q 1137 1128 1314 949 q 704 1306 959 1306 m 881 454 q 913 527 881 496 q 989 558 946 558 q 1060 529 1031 558 q 1089 455 1089 500 q 1059 380 1089 410 q 985 350 1028 350 q 912 381 943 350 q 881 454 881 412 m 600 1010 q 632 1082 600 1051 q 708 1114 665 1114 q 780 1084 751 1114 q 808 1010 808 1055 q 778 936 808 966 q 704 905 747 905 q 631 936 663 905 q 600 1010 600 967 m 326 458 q 358 530 326 499 q 434 562 391 562 q 505 532 476 562 q 534 458 534 503 q 503 384 534 414 q 429 353 473 353 q 357 384 388 353 q 326 458 326 415 z "},"":{"ha":1682,"x_min":27,"x_max":1655,"o":"m 856 452 l 298 0 l 477 624 l 27 968 l 589 968 l 847 1628 l 1112 968 l 1655 968 l 1222 624 l 1410 0 l 856 452 m 687 781 q 735 668 687 715 q 846 622 783 622 q 958 667 911 622 q 1004 782 1004 712 q 960 895 1004 850 q 852 939 916 939 q 738 892 789 939 q 687 781 687 845 z "},"":{"ha":1750,"x_min":27,"x_max":1723,"o":"m 1723 0 l 27 0 l 27 68 l 1723 68 l 1723 0 m 1723 543 l 27 543 l 27 610 l 1723 610 l 1723 543 m 401 555 l 401 0 l 332 0 l 332 555 l 401 555 m 1419 555 l 1419 0 l 1350 0 l 1350 555 l 1419 555 m 909 1289 l 909 543 l 841 543 l 841 1289 l 909 1289 m 689 1251 l 1105 903 l 1061 851 l 645 1200 l 689 1251 m 1105 1200 l 689 851 l 645 903 l 1061 1251 l 1105 1200 z "},"":{"ha":1478,"x_min":27,"x_max":1451,"o":"m 1451 0 l 27 0 l 27 68 l 1451 68 l 1451 0 m 1232 68 l 739 566 l 246 68 l 1232 68 m 146 68 l 739 678 l 1333 68 l 146 68 m 773 1356 l 773 610 l 705 610 l 705 1356 l 773 1356 m 553 1319 l 968 970 l 925 919 l 509 1267 l 553 1319 m 968 1267 l 553 919 l 509 970 l 925 1319 l 968 1267 z "},"":{"ha":2034,"x_min":0,"x_max":2032,"o":"m 1984 957 q 1984 976 2005 968 l 1984 957 m 1055 947 q 967 1013 1008 977 q 857 1067 922 1039 q 507 1139 692 1139 q 157 1067 321 1139 q 121 1050 138 1059 q 121 1013 121 1031 q 191 662 121 827 q 383 375 260 497 q 669 182 505 253 q 1019 111 832 111 q 1368 182 1204 111 q 1654 375 1531 253 q 1849 662 1777 497 q 1899 813 1881 735 q 1625 771 1777 771 q 1343 810 1478 771 q 1348 802 1345 806 l 1324 817 q 1230 851 1276 831 q 1066 939 1143 889 q 1059 941 1062 940 q 1055 947 1057 944 m 1175 1000 q 1278 954 1225 976 q 1628 882 1441 882 q 1917 930 1780 882 q 1921 1013 1921 970 q 1849 1363 1921 1198 q 1654 1651 1777 1528 q 1368 1847 1531 1775 q 1019 1919 1204 1919 q 669 1847 832 1919 q 383 1651 505 1775 q 191 1363 260 1528 q 136 1183 154 1276 q 505 1253 311 1253 q 899 1173 713 1253 q 1175 1000 1053 1106 m 2032 1015 q 1952 619 2032 805 q 1734 297 1872 433 q 1411 80 1596 160 q 1016 0 1225 0 q 621 80 807 0 q 297 297 435 160 q 80 619 159 433 q 0 1015 0 805 q 80 1410 0 1223 q 297 1734 159 1596 q 621 1952 435 1872 q 1016 2032 807 2032 q 1411 1952 1225 2032 q 1734 1734 1596 1872 q 1952 1410 1872 1596 q 2032 1015 2032 1223 z "},"":{"ha":2034,"x_min":121,"x_max":1899,"o":"m 1055 947 q 967 1013 1008 977 q 857 1067 922 1039 q 507 1139 692 1139 q 157 1067 321 1139 q 121 1050 138 1059 q 121 1013 121 1031 q 191 662 121 827 q 383 375 260 497 q 669 182 505 253 q 1019 111 832 111 q 1368 182 1204 111 q 1654 375 1531 253 q 1849 662 1777 497 q 1899 813 1881 735 q 1625 771 1777 771 q 1343 810 1478 771 q 1348 802 1345 806 l 1324 817 q 1230 851 1276 831 q 1066 939 1143 889 q 1059 941 1062 940 q 1055 947 1057 944 z "},"":{"ha":1114,"x_min":27,"x_max":1087,"o":"m 875 0 l 197 0 l 197 68 l 875 68 l 875 0 m 568 1289 l 568 68 l 504 68 l 504 1289 l 568 1289 m 1044 1289 l 27 1289 l 27 1356 l 1044 1356 l 1044 1289 m 951 1289 l 951 1085 l 884 1085 l 884 1289 l 951 1289 m 917 1085 q 1038 1036 988 1085 q 1087 916 1087 986 q 1038 795 1087 845 q 917 746 988 746 q 798 795 847 746 q 748 916 748 845 q 797 1036 748 986 q 917 1085 846 1085 m 917 1017 q 845 988 875 1017 q 815 916 815 958 q 845 844 815 873 q 917 814 875 814 q 989 844 960 814 q 1019 916 1019 873 q 989 988 1019 958 q 917 1017 960 1017 z "},"":{"ha":1750,"x_min":27,"x_max":1723,"o":"m 916 888 l 916 610 l 847 610 l 847 888 l 916 888 m 881 1374 q 1079 1293 998 1374 q 1160 1095 1160 1211 q 1078 900 1160 981 q 881 819 997 819 q 685 900 766 819 q 604 1095 604 981 q 684 1293 604 1211 q 881 1374 765 1374 m 881 1305 q 733 1244 794 1305 q 673 1097 673 1183 q 733 949 673 1010 q 881 888 794 888 q 1028 949 968 888 q 1089 1097 1089 1010 q 1029 1244 1089 1183 q 881 1305 968 1305 m 1723 0 l 27 0 l 27 68 l 1723 68 l 1723 0 m 1723 543 l 27 543 l 27 610 l 1723 610 l 1723 543 m 368 555 l 368 0 l 298 0 l 298 555 l 368 555 m 1453 555 l 1453 0 l 1383 0 l 1383 555 l 1453 555 z "},"":{"ha":1411,"x_min":27,"x_max":1383,"o":"m 1048 0 l 1048 1356 l 1120 1356 l 1120 0 l 1048 0 m 298 0 l 298 1356 l 370 1356 l 370 0 l 298 0 m 1383 1019 l 27 1019 l 27 1091 l 1383 1091 l 1383 1019 m 1383 271 l 27 271 l 27 342 l 1383 342 l 1383 271 z "},"":{"ha":732,"x_min":27,"x_max":705,"o":"m 27 0 l 27 678 l 705 678 l 705 0 l 27 0 z "},"":{"ha":732,"x_min":27,"x_max":705,"o":"m 366 1682 q 533 1638 452 1682 q 660 1513 614 1594 q 705 1343 705 1432 q 661 1174 705 1255 q 535 1049 616 1094 q 366 1004 454 1004 q 197 1049 278 1004 q 72 1174 116 1094 q 27 1343 27 1255 q 73 1513 27 1432 q 199 1638 118 1594 q 366 1682 281 1682 m 412 1002 q 379 901 385 944 q 376 804 373 857 q 436 713 380 750 q 511 614 493 675 q 513 492 530 553 q 466 395 496 431 q 408 321 437 359 q 380 243 378 283 q 406 155 381 204 q 510 0 431 106 q 379 92 415 63 q 313 153 343 121 q 278 239 282 185 q 292 332 275 294 q 342 406 309 370 q 373 522 376 443 q 314 642 371 602 q 228 728 257 682 q 196 836 199 774 q 253 1017 193 897 l 412 1002 z "},"":{"ha":2767,"x_min":27,"x_max":2740,"o":"m 2740 0 l 27 0 l 27 68 l 2740 68 l 2740 0 m 2740 1289 l 27 1289 l 27 1356 l 2740 1356 l 2740 1289 m 95 1356 l 95 0 l 27 0 l 27 1356 l 95 1356 m 739 1356 l 739 0 l 671 0 l 671 1356 l 739 1356 m 1417 1356 l 1417 0 l 1350 0 l 1350 1356 l 1417 1356 m 2096 1356 l 2096 0 l 2028 0 l 2028 1356 l 2096 1356 m 2740 1356 l 2740 0 l 2672 0 l 2672 1356 l 2740 1356 m 2740 644 l 27 644 l 27 712 l 2740 712 l 2740 644 z "},"":{"ha":1610,"x_min":27,"x_max":1583,"o":"m 802 1017 q 1163 868 1015 1017 q 1312 509 1312 720 l 1244 509 q 1114 822 1242 693 q 802 951 986 951 q 489 822 618 951 q 362 509 361 693 l 294 509 q 442 868 294 720 q 802 1017 590 1017 m 362 509 l 362 0 l 294 0 l 294 509 l 362 509 m 1312 509 l 1312 0 l 1244 0 l 1244 509 l 1312 509 m 27 68 l 366 68 l 366 1 l 27 1 l 27 68 m 1244 68 l 1583 68 l 1583 0 l 1244 0 l 1244 68 z "},"":{"ha":1072,"x_min":27,"x_max":1044,"o":"m 1044 0 l 27 0 l 27 203 l 1044 203 l 1044 0 m 637 1017 l 637 0 l 434 0 l 434 1017 l 637 1017 z "},"":{"ha":1072,"x_min":27,"x_max":1044,"o":"m 1044 610 l 27 610 l 27 407 l 1044 407 l 1044 610 m 434 1017 l 434 0 l 637 0 l 637 1017 l 434 1017 z "},"":{"ha":665,"x_min":27,"x_max":637,"o":"m 27 0 l 27 373 l 570 373 l 570 0 l 27 0 m 27 661 l 27 1034 l 570 1034 l 570 661 l 27 661 m 27 1322 l 27 1695 l 570 1695 l 570 1322 l 27 1322 m 95 1695 l 95 0 l 27 0 l 27 1695 l 95 1695 m 637 1695 l 637 0 l 570 0 l 570 1695 l 637 1695 z "},"":{"ha":2034,"x_min":918,"x_max":1111,"o":"m 1015 944 q 1083 867 1055 944 q 1111 680 1111 789 q 1083 494 1111 572 q 1015 417 1055 417 q 946 494 974 417 q 918 680 918 572 q 946 867 918 789 q 1015 944 974 944 z "},"":{"ha":597,"x_min":27,"x_max":570,"o":"m 27 0 l 298 1356 l 570 0 l 27 0 z "},"":{"ha":1356,"x_min":342,"x_max":1019,"o":"m 535 5 l 777 985 l 1019 5 l 535 5 m 342 5 l 535 663 l 729 5 l 342 5 z "},"":{"ha":1275,"x_min":27,"x_max":1248,"o":"m 27 0 l 434 1695 l 688 636 l 536 0 l 434 0 l 27 0 m 434 0 l 841 1356 l 1248 0 l 434 0 m 363 68 l 363 990 l 146 68 l 363 68 m 747 68 l 747 677 l 604 68 l 747 68 z "},"":{"ha":732,"x_min":27,"x_max":705,"o":"m 366 678 q 607 579 508 678 q 705 338 705 479 q 606 99 705 198 q 366 0 507 0 q 126 99 226 0 q 27 338 27 198 q 125 579 27 479 q 366 678 224 678 m 366 611 q 173 532 252 611 q 94 340 94 453 q 173 148 94 227 q 366 68 252 68 q 557 148 478 68 q 637 340 637 227 q 558 532 637 453 q 366 611 479 611 m 366 407 q 399 398 383 407 q 425 373 416 389 q 434 339 434 357 q 425 305 434 321 q 400 280 416 289 q 366 271 384 271 q 332 280 349 271 q 307 305 316 289 q 298 339 298 321 q 308 373 298 357 q 333 398 317 389 q 366 407 349 407 z "},"":{"ha":665,"x_min":27,"x_max":637,"o":"m 637 0 l 27 0 l 27 68 l 637 68 l 637 0 m 95 1356 l 95 0 l 27 0 l 27 1356 l 95 1356 m 595 1582 l 66 1277 l 33 1336 l 561 1641 l 595 1582 m 562 1002 l 33 1307 l 67 1366 l 595 1061 l 562 1002 z "},"":{"ha":1038,"x_min":27,"x_max":1010,"o":"m 841 0 l 27 0 l 27 68 l 841 68 l 841 0 m 468 1695 l 468 0 l 400 0 l 400 1695 l 468 1695 m 671 1356 l 400 1356 l 400 1424 l 671 1424 l 671 1356 m 806 1594 q 951 1534 892 1594 q 1010 1390 1010 1474 q 951 1246 1010 1305 q 806 1187 891 1187 q 663 1246 723 1187 q 604 1390 604 1305 q 663 1534 604 1474 q 806 1594 722 1594 m 806 1527 q 710 1487 750 1527 q 671 1391 671 1447 q 710 1295 671 1334 q 806 1255 750 1255 q 902 1295 863 1255 q 942 1391 942 1334 q 903 1487 942 1447 q 806 1527 863 1527 z "},"":{"ha":732,"x_min":27,"x_max":705,"o":"m 366 678 q 607 579 508 678 q 705 338 705 479 q 606 99 705 198 q 366 0 507 0 q 126 99 226 0 q 27 338 27 198 q 125 579 27 479 q 366 678 224 678 m 366 611 q 173 532 252 611 q 94 340 94 453 q 173 148 94 227 q 366 68 252 68 q 557 148 478 68 q 637 340 637 227 q 558 532 637 453 q 366 611 479 611 m 400 2035 l 400 678 l 332 678 l 332 2035 l 400 2035 m 393 1785 l 698 1421 l 646 1378 l 341 1742 l 393 1785 z "},"":{"ha":1072,"x_min":27,"x_max":1044,"o":"m 1044 612 l 62 0 l 27 66 l 1009 678 l 1044 612 m 1009 0 l 27 612 l 62 678 l 1044 66 l 1009 0 z "},"":{"ha":2428,"x_min":27,"x_max":2401,"o":"m 2401 66 l 2187 285 l 2186 147 l 2342 0 l 2401 66 m 324 220 l 324 1028 l 324 1942 l 2105 1942 l 2105 219 l 2194 138 l 2194 1028 l 2194 2035 l 236 2035 l 236 143 l 324 220 m 86 0 l 242 147 l 241 285 l 27 66 l 86 0 m 754 685 l 1758 1717 l 1826 1647 l 822 616 l 754 685 m 1604 614 l 600 1644 l 667 1714 l 1672 684 l 1604 614 m 1520 527 l 1758 780 l 1829 710 l 1590 456 l 1520 527 m 668 772 l 916 527 l 846 455 l 602 701 l 668 772 z "},"":{"ha":1411,"x_min":27,"x_max":1383,"o":"m 704 1356 q 1186 1158 989 1356 q 1383 677 1383 959 q 1185 198 1383 397 q 704 0 987 0 q 225 198 424 0 q 27 677 27 397 q 224 1158 27 959 q 704 1356 421 1356 m 1280 971 l 164 327 l 130 385 l 1246 1029 l 1280 971 m 704 1290 q 272 1112 450 1290 q 94 680 94 934 q 272 248 94 426 q 704 69 450 69 q 1136 248 957 69 q 1314 680 1314 426 q 1137 1112 1314 934 q 704 1290 959 1290 z "},"":{"ha":1411,"x_min":27,"x_max":1383,"o":"m 1383 0 l 27 0 l 27 68 l 1383 68 l 1383 0 m 1383 610 l 27 610 l 27 678 l 1383 678 l 1383 610 m 95 678 l 95 0 l 27 0 l 27 678 l 95 678 m 604 678 l 604 0 l 536 0 l 536 678 l 604 678 m 1112 678 l 1112 0 l 1044 0 l 1044 678 l 1112 678 z "},"":{"ha":2088,"x_min":27,"x_max":2061,"o":"m 366 678 l 366 611 q 173 532 252 611 q 94 340 94 453 q 173 148 94 227 q 366 68 252 68 l 366 0 q 126 99 226 0 q 27 338 27 198 q 125 579 27 479 q 366 678 224 678 m 1723 0 l 366 0 l 366 68 l 1723 68 l 1723 0 m 1723 610 l 366 610 l 366 678 l 1723 678 l 1723 610 m 1723 678 q 1962 579 1864 678 q 2061 338 2061 479 q 1962 99 2061 198 q 1723 0 1862 0 l 1723 68 q 1915 148 1836 68 q 1994 340 1994 227 q 1915 532 1994 453 q 1723 611 1836 611 l 1723 678 z "},"":{"ha":1411,"x_min":27,"x_max":1383,"o":"m 722 814 l 1112 0 l 1028 0 l 706 665 l 385 0 l 298 0 l 694 814 l 722 814 m 366 0 l 27 0 l 27 68 l 366 68 l 366 0 m 1383 0 l 1044 0 l 1044 68 l 1383 68 l 1383 0 m 637 543 l 27 543 l 27 610 l 637 610 l 637 543 m 1383 543 l 773 543 l 773 610 l 1383 610 l 1383 543 z "},"":{"ha":1891,"x_min":27,"x_max":1864,"o":"m 962 1034 l 1352 220 l 1268 220 l 946 885 l 625 220 l 538 220 l 934 1034 l 962 1034 m 606 220 l 267 220 l 267 288 l 606 288 l 606 220 m 1624 220 l 1284 220 l 1284 288 l 1624 288 l 1624 220 m 878 762 l 267 762 l 267 830 l 878 830 l 878 762 m 1624 762 l 1013 762 l 1013 830 l 1624 830 l 1624 762 m 267 762 l 27 1002 l 75 1050 l 315 810 l 267 762 m 1576 810 l 1816 1050 l 1864 1002 l 1624 762 l 1576 810 m 315 240 l 75 0 l 27 48 l 267 288 l 315 240 m 1624 288 l 1864 48 l 1816 0 l 1577 240 l 1624 288 z "},"":{"ha":1072,"x_min":27,"x_max":1044,"o":"m 1044 271 l 27 271 l 27 339 l 1044 339 l 1044 271 m 1044 814 l 27 814 l 27 882 l 1044 882 l 1044 814 m 231 271 l 231 0 l 163 0 l 163 271 l 231 271 m 909 271 l 909 0 l 841 0 l 841 271 l 909 271 z "},"":{"ha":1555,"x_min":27,"x_max":1528,"o":"m 1284 271 l 267 271 l 267 339 l 1284 339 l 1284 271 m 1284 814 l 267 814 l 267 882 l 1284 882 l 1284 814 m 471 271 l 471 0 l 403 0 l 403 271 l 471 271 m 1149 271 l 1149 0 l 1081 0 l 1081 271 l 1149 271 m 267 814 l 27 1054 l 75 1101 l 315 862 l 267 814 m 1238 862 l 1478 1101 l 1525 1054 l 1286 814 l 1238 862 m 317 291 l 77 52 l 30 99 l 269 339 l 317 291 m 1288 339 l 1528 99 l 1480 52 l 1240 291 l 1288 339 z "},"":{"ha":1444,"x_min":27,"x_max":1417,"o":"m 587 1695 l 587 0 l 519 0 l 519 1695 l 587 1695 m 536 1645 l 27 1645 l 27 1712 l 536 1712 l 536 1645 m 536 1136 l 197 1136 l 197 1204 l 536 1204 l 536 1136 m 536 627 l 366 627 l 366 695 l 536 695 l 536 627 m 926 1695 l 926 0 l 858 0 l 858 1695 l 926 1695 m 909 1712 l 1417 1712 l 1417 1645 l 909 1645 l 909 1712 m 909 1204 l 1248 1204 l 1248 1136 l 909 1136 l 909 1204 m 909 695 l 1078 695 l 1078 627 l 909 627 l 909 695 z "},"":{"ha":2308,"x_min":27,"x_max":2305,"o":"m 2060 271 l 267 271 l 267 339 l 2060 339 l 2060 271 m 2068 610 l 267 610 l 267 678 l 2068 678 l 2068 610 m 267 610 l 27 850 l 75 898 l 315 659 l 267 610 m 2018 659 l 2258 898 l 2305 850 l 2066 610 l 2018 659 m 317 291 l 77 52 l 30 99 l 269 339 l 317 291 m 2061 339 l 2301 99 l 2253 52 l 2013 291 l 2061 339 z "},"":{"ha":673,"x_min":27,"x_max":646,"o":"m 163 1035 q 229 1017 197 1035 q 280 967 262 1000 q 298 899 298 935 q 280 832 298 864 q 230 782 262 800 q 163 764 198 764 q 95 782 127 764 q 45 832 63 800 q 27 899 27 864 q 45 967 27 935 q 96 1017 64 1000 q 163 1035 128 1035 m 510 271 q 576 254 544 271 q 627 203 609 236 q 646 136 646 171 q 628 68 646 100 q 577 18 610 36 q 510 0 545 0 q 443 18 475 0 q 392 68 410 36 q 374 136 374 100 q 393 203 374 171 q 443 254 411 236 q 510 271 475 271 m 277 928 q 489 60 345 491 l 420 60 q 208 928 276 491 l 277 928 z "},"":{"ha":1141,"x_min":27,"x_max":1114,"o":"m 772 1329 q 860 1313 772 1329 q 1067 1063 947 1296 l 1042 1023 q 756 1214 918 1184 q 488 1122 595 1243 q 317 763 381 1002 q 286 366 253 525 q 475 143 318 208 q 812 172 632 79 l 802 113 q 429 20 598 -47 q 143 265 259 87 q 125 812 27 443 q 408 1262 219 1162 q 772 1329 597 1362 m 1033 665 q 1078 640 1057 659 q 1105 593 1099 621 q 1105 541 1112 566 q 1079 495 1099 515 q 1033 469 1060 475 q 979 469 1006 462 q 934 495 954 475 q 907 541 913 514 q 907 594 900 568 q 933 640 913 620 q 980 666 953 660 q 1033 665 1007 673 m 1073 951 q 1096 938 1086 947 q 1110 914 1106 928 q 1109 888 1114 901 q 1097 865 1106 875 q 1073 852 1087 855 q 1047 852 1059 848 q 1024 865 1034 855 q 1010 888 1013 874 q 1010 915 1007 902 q 1024 938 1014 928 q 1047 951 1034 947 q 1073 951 1061 954 m 911 329 q 933 316 923 326 q 947 293 943 307 q 947 267 951 279 q 934 244 944 254 q 910 231 924 234 q 884 231 897 227 q 861 243 871 234 q 848 267 851 253 q 848 294 844 281 q 861 316 851 307 q 884 330 871 326 q 911 329 897 333 z "},"":{"ha":1275,"x_min":27,"x_max":1248,"o":"m 27 814 l 60 785 q 637 262 321 294 q 1209 775 954 294 l 1248 814 q 1013 160 1187 319 q 637 0 838 0 q 266 161 435 0 q 27 814 98 323 z "},"":{"ha":2034,"x_min":0,"x_max":2032,"o":"m 96 1445 q 298 1734 173 1609 q 621 1952 435 1872 q 1016 2032 807 2032 q 1411 1952 1225 2032 q 1734 1734 1596 1872 q 1952 1410 1872 1596 q 2032 1015 2032 1223 q 1952 619 2032 805 q 1734 297 1872 433 q 1411 80 1596 160 q 1016 0 1225 0 q 621 80 807 0 q 297 297 435 160 q 80 619 159 433 q 0 1015 0 805 q 80 1410 0 1223 q 89 1430 84 1420 l 89 1445 l 96 1445 m 229 1445 l 1799 1445 q 1649 1643 1737 1555 q 1362 1839 1526 1767 q 1013 1910 1198 1910 q 663 1839 827 1910 q 378 1643 500 1767 q 229 1445 290 1555 m 1915 1015 l 1223 1015 l 1223 127 q 1362 174 1295 144 q 1649 367 1526 245 q 1843 654 1771 489 q 1915 1004 1915 819 l 1915 1015 m 1096 1015 l 920 1015 l 920 108 q 1013 103 966 103 q 1096 106 1055 103 l 1096 1015 m 793 1015 l 115 1015 l 115 1004 q 185 654 115 819 q 377 367 255 489 q 663 174 500 245 q 790 130 725 147 l 793 1015 m 125 1142 l 1905 1142 q 1858 1318 1891 1233 l 170 1318 q 125 1142 139 1233 z "},"":{"ha":2034,"x_min":115,"x_max":1915,"o":"m 1915 1015 l 1223 1015 l 1223 127 q 1362 174 1295 144 q 1649 367 1526 245 q 1843 654 1771 489 q 1915 1004 1915 819 l 1915 1015 m 793 1015 l 115 1015 l 115 1004 q 185 654 115 819 q 377 367 255 489 q 663 174 500 245 q 790 130 725 147 l 793 1015 z "},"":{"ha":1555,"x_min":27,"x_max":1528,"o":"m 1284 271 l 267 271 l 267 339 l 1284 339 l 1284 271 m 267 263 l 27 503 l 75 551 l 315 311 l 267 263 m 1238 311 l 1478 551 l 1525 503 l 1286 263 l 1238 311 m 317 291 l 77 52 l 30 99 l 269 339 l 317 291 m 1288 339 l 1528 99 l 1480 52 l 1240 291 l 1288 339 z "},"":{"ha":739,"x_min":27,"x_max":712,"o":"m 712 615 l 153 831 l 437 1314 l 712 615 m 406 0 l 27 667 l 578 532 l 406 0 z "},"":{"ha":2034,"x_min":4,"x_max":2039,"o":"m 1850 1360 q 1849 1363 1849 1361 q 1654 1651 1777 1528 q 1368 1847 1531 1775 q 1019 1919 1204 1919 q 669 1847 832 1919 q 383 1651 505 1775 q 191 1363 260 1528 q 189 1358 189 1360 l 1850 1360 m 185 675 q 191 662 188 669 q 383 375 260 497 q 669 182 505 253 q 1019 111 832 111 q 1368 182 1204 111 q 1654 375 1531 253 q 1849 662 1777 497 q 1855 675 1851 669 l 185 675 m 144 1223 q 121 1013 121 1121 q 141 817 121 911 l 1900 817 q 1909 869 1905 842 l 1920 1053 q 1896 1223 1916 1140 l 144 1223 m 2039 1010 q 1958 609 2039 793 q 1740 289 1878 425 q 1416 77 1602 153 q 1019 0 1230 0 q 622 77 808 0 q 299 289 437 153 q 83 609 161 425 q 4 1010 4 793 q 83 1409 4 1223 q 299 1735 161 1596 q 622 1954 437 1874 q 1019 2035 808 2035 q 1416 1954 1230 2035 q 1740 1735 1602 1874 q 1958 1409 1878 1596 q 2039 1010 2039 1223 z "},"":{"ha":2034,"x_min":121,"x_max":1920,"o":"m 144 1223 q 121 1013 121 1121 q 141 817 121 911 l 1900 817 q 1909 869 1905 842 l 1920 1053 q 1896 1223 1916 1140 l 144 1223 z "},"":{"ha":2034,"x_min":1,"x_max":2032,"o":"m 1897 -2 l 3 -2 l 3 -1 l 1 -1 l 1 1180 l 138 1221 l 950 1492 l 1025 1514 l 1090 1491 l 1903 1217 l 2030 1168 l 2030 132 l 2032 132 l 2032 -2 l 2030 -2 l 2030 -3 l 1897 -3 l 1897 -2 m 1084 132 l 1897 132 l 1903 1080 l 1084 1344 l 1018 1362 l 950 1344 l 135 1081 l 135 132 l 950 132 l 1084 132 z "},"":{"ha":2034,"x_min":135,"x_max":1903,"o":"m 1084 132 l 1897 132 l 1903 1080 l 1084 1344 l 1018 1362 l 950 1344 l 135 1081 l 135 132 l 950 132 l 1084 132 z "},"":{"ha":868,"x_min":27,"x_max":841,"o":"m 433 814 q 723 695 604 814 q 841 406 841 576 q 722 119 841 238 q 433 0 603 0 q 146 119 265 0 q 27 406 27 238 q 145 695 27 576 q 433 814 264 814 m 433 747 q 193 648 292 747 q 94 408 94 549 q 193 168 94 267 q 433 68 292 68 q 673 168 574 68 q 772 408 772 267 q 674 648 772 549 q 433 747 575 747 z "},"":{"ha":732,"x_min":27,"x_max":705,"o":"m 366 678 q 607 579 508 678 q 705 338 705 479 q 606 99 705 198 q 366 0 507 0 q 126 99 226 0 q 27 338 27 198 q 125 579 27 479 q 366 678 224 678 m 366 611 q 173 532 252 611 q 94 340 94 453 q 173 148 94 227 q 366 68 252 68 q 557 148 478 68 q 637 340 637 227 q 558 532 637 453 q 366 611 479 611 z "},"":{"ha":597,"x_min":27,"x_max":570,"o":"m 298 543 q 491 463 412 543 q 570 271 570 384 q 490 79 570 159 q 298 0 411 0 q 106 79 186 0 q 27 271 27 159 q 106 463 27 384 q 298 543 184 543 m 298 475 q 154 416 213 475 q 94 272 94 357 q 154 128 94 187 q 298 68 213 68 q 442 128 382 68 q 501 272 501 187 q 442 416 501 357 q 298 475 383 475 z "},"":{"ha":1004,"x_min":27,"x_max":977,"o":"m 433 814 q 723 695 604 814 q 841 406 841 576 q 722 119 841 238 q 433 0 603 0 q 146 119 265 0 q 27 406 27 238 q 145 695 27 576 q 433 814 264 814 m 433 747 q 193 648 292 747 q 94 408 94 549 q 193 168 94 267 q 433 68 292 68 q 673 168 574 68 q 772 408 772 267 q 674 648 772 549 q 433 747 575 747 m 977 0 l 434 0 l 434 68 l 977 68 l 977 0 z "},"":{"ha":1377,"x_min":27,"x_max":1350,"o":"m 1078 1322 q 1271 1243 1192 1322 q 1350 1050 1350 1164 q 1270 859 1350 939 q 1078 780 1191 780 q 886 859 966 780 q 807 1050 807 939 q 886 1243 807 1164 q 1078 1322 964 1322 m 1078 1255 q 933 1196 993 1255 q 874 1052 874 1137 q 933 908 874 967 q 1078 848 993 848 q 1222 908 1162 848 q 1281 1052 1281 967 q 1222 1196 1281 1137 q 1078 1255 1163 1255 m 433 747 q 193 648 292 747 q 94 408 94 549 q 193 168 94 267 q 433 68 292 68 q 673 168 574 68 q 772 408 772 267 q 674 648 772 549 q 433 747 575 747 m 433 814 q 723 695 604 814 q 841 406 841 576 q 722 119 841 238 q 433 0 603 0 q 146 119 265 0 q 27 406 27 238 q 145 695 27 576 q 433 814 264 814 z "},"":{"ha":1648,"x_min":27,"x_max":1621,"o":"m 823 865 q 1016 785 937 865 q 1095 593 1095 706 q 1016 401 1095 481 q 823 322 937 322 q 632 401 711 322 q 553 593 553 481 q 631 785 553 706 q 823 865 710 865 m 823 798 q 679 738 739 798 q 620 594 620 679 q 679 450 620 509 q 823 391 739 391 q 967 450 908 391 q 1027 594 1027 509 q 968 738 1027 679 q 823 798 909 798 m 163 271 q 229 254 197 271 q 280 203 262 236 q 298 136 298 171 q 280 68 298 100 q 230 18 262 36 q 163 0 198 0 q 95 18 127 0 q 45 68 63 36 q 27 136 27 100 q 45 203 27 171 q 96 254 64 236 q 163 271 128 271 m 1485 271 q 1552 254 1519 271 q 1603 203 1584 236 q 1621 136 1621 171 q 1603 68 1621 100 q 1553 18 1585 36 q 1485 0 1520 0 q 1418 18 1450 0 q 1368 68 1385 36 q 1350 136 1350 100 q 1368 203 1350 171 q 1418 254 1386 236 q 1485 271 1451 271 m 824 1478 q 890 1461 858 1478 q 941 1411 923 1443 q 960 1343 960 1378 q 942 1275 960 1308 q 891 1225 924 1243 q 824 1207 859 1207 q 756 1225 789 1207 q 706 1275 724 1243 q 688 1343 688 1308 q 707 1411 688 1378 q 757 1461 725 1443 q 824 1478 789 1478 m 824 2021 q 890 2003 858 2021 q 941 1953 923 1986 q 960 1885 960 1921 q 942 1818 960 1850 q 891 1768 924 1786 q 824 1750 859 1750 q 756 1768 789 1750 q 706 1818 724 1786 q 688 1885 688 1850 q 707 1953 688 1921 q 757 2003 725 1986 q 824 2021 789 2021 z "},"":{"ha":1648,"x_min":27,"x_max":1621,"o":"m 823 865 q 1016 785 937 865 q 1095 593 1095 706 q 1016 401 1095 481 q 823 322 937 322 q 632 401 711 322 q 553 593 553 481 q 631 785 553 706 q 823 865 710 865 m 823 798 q 679 738 739 798 q 620 594 620 679 q 679 450 620 509 q 823 391 739 391 q 967 450 908 391 q 1027 594 1027 509 q 968 738 1027 679 q 823 798 909 798 m 163 271 q 229 254 197 271 q 280 203 262 236 q 298 136 298 171 q 280 68 298 100 q 230 18 262 36 q 163 0 198 0 q 95 18 127 0 q 45 68 63 36 q 27 136 27 100 q 45 203 27 171 q 96 254 64 236 q 163 271 128 271 m 1485 271 q 1552 254 1519 271 q 1603 203 1584 236 q 1621 136 1621 171 q 1603 68 1621 100 q 1553 18 1585 36 q 1485 0 1520 0 q 1418 18 1450 0 q 1368 68 1385 36 q 1350 136 1350 100 q 1368 203 1350 171 q 1418 254 1386 236 q 1485 271 1451 271 m 824 1478 q 890 1461 858 1478 q 941 1411 923 1443 q 960 1343 960 1378 q 942 1275 960 1308 q 891 1225 924 1243 q 824 1207 859 1207 q 756 1225 789 1207 q 706 1275 724 1243 q 688 1343 688 1308 q 707 1411 688 1378 q 757 1461 725 1443 q 824 1478 789 1478 z "},"":{"ha":1648,"x_min":27,"x_max":1621,"o":"m 823 865 q 1016 785 937 865 q 1095 593 1095 706 q 1016 401 1095 481 q 823 322 937 322 q 632 401 711 322 q 553 593 553 481 q 631 785 553 706 q 823 865 710 865 m 163 271 q 229 254 197 271 q 280 203 262 236 q 298 136 298 171 q 280 68 298 100 q 230 18 262 36 q 163 0 198 0 q 95 18 127 0 q 45 68 63 36 q 27 136 27 100 q 45 203 27 171 q 96 254 64 236 q 163 271 128 271 m 1485 271 q 1552 254 1519 271 q 1603 203 1584 236 q 1621 136 1621 171 q 1603 68 1621 100 q 1553 18 1585 36 q 1485 0 1520 0 q 1418 18 1450 0 q 1368 68 1385 36 q 1350 136 1350 100 q 1368 203 1350 171 q 1418 254 1386 236 q 1485 271 1451 271 m 824 1478 q 890 1461 858 1478 q 941 1411 923 1443 q 960 1343 960 1378 q 942 1275 960 1308 q 891 1225 924 1243 q 824 1207 859 1207 q 756 1225 789 1207 q 706 1275 724 1243 q 688 1343 688 1308 q 707 1411 688 1378 q 757 1461 725 1443 q 824 1478 789 1478 z "},"":{"ha":326,"x_min":27,"x_max":298,"o":"m 163 271 q 229 254 197 271 q 280 203 262 236 q 298 136 298 171 q 280 68 298 100 q 230 18 262 36 q 163 0 198 0 q 95 18 127 0 q 45 68 63 36 q 27 136 27 100 q 45 203 27 171 q 96 254 64 236 q 163 271 128 271 z "},"":{"ha":977,"x_min":27,"x_max":949,"o":"m 863 0 l 456 0 l 456 68 l 863 68 l 863 0 m 524 1695 l 524 0 l 456 0 l 456 1695 l 524 1695 m 515 960 l 79 441 l 27 484 l 463 1004 l 515 960 m 513 1004 l 949 484 l 897 441 l 461 960 l 513 1004 m 517 1695 l 865 1280 l 813 1236 l 465 1652 l 517 1695 m 511 1652 l 163 1236 l 111 1280 l 460 1695 l 511 1652 z "},"":{"ha":868,"x_min":27,"x_max":841,"o":"m 807 0 l 400 0 l 400 68 l 807 68 l 807 0 m 468 339 l 468 0 l 400 0 l 400 339 l 468 339 m 27 339 l 434 1695 l 841 339 l 27 339 m 760 407 l 434 1492 l 109 407 l 760 407 z "},"":{"ha":1009,"x_min":27,"x_max":982,"o":"m 705 0 l 298 0 l 298 68 l 705 68 l 705 0 m 587 1440 q 366 252 368 531 l 366 0 l 298 0 l 298 252 q 519 1440 300 531 l 587 1440 m 560 1480 q 193 1262 358 1390 q 57 1181 27 1135 q 194 1340 87 1228 q 503 1542 300 1452 l 560 1480 m 513 1541 q 232 1659 347 1632 q 154 1697 117 1686 q 280 1708 191 1709 q 530 1602 370 1706 l 513 1541 m 572 1596 q 815 1717 734 1713 q 939 1705 897 1721 q 874 1666 982 1689 q 596 1539 766 1643 l 572 1596 m 610 1541 q 873 1453 804 1497 q 962 1377 941 1409 q 892 1391 982 1345 q 583 1485 802 1438 l 610 1541 z "},"":{"ha":2089,"x_min":27,"x_max":2062,"o":"m 590 339 l 590 0 l 522 0 l 522 339 l 590 339 m 149 339 l 556 1695 l 963 339 l 149 339 m 882 407 l 556 1492 l 231 407 l 882 407 m 2062 0 l 27 0 l 27 68 l 2062 68 l 2062 0 m 1508 1695 l 1508 0 l 1440 0 l 1440 1695 l 1508 1695 m 1498 960 l 1063 441 l 1010 484 l 1447 1004 l 1498 960 m 1497 1004 l 1933 484 l 1881 441 l 1444 960 l 1497 1004 m 1500 1695 l 1849 1280 l 1796 1236 l 1448 1652 l 1500 1695 m 1495 1652 l 1146 1236 l 1094 1280 l 1443 1695 l 1495 1652 z "},"":{"ha":2089,"x_min":27,"x_max":2062,"o":"m 590 339 l 590 0 l 522 0 l 522 339 l 590 339 m 149 339 l 556 1695 l 963 339 l 149 339 m 882 407 l 556 1492 l 231 407 l 882 407 m 2062 0 l 27 0 l 27 68 l 2062 68 l 2062 0 m 1553 339 l 1553 0 l 1485 0 l 1485 339 l 1553 339 m 1112 339 l 1519 1695 l 1926 339 l 1112 339 m 1845 407 l 1519 1492 l 1194 407 l 1845 407 z "},"":{"ha":2089,"x_min":27,"x_max":2062,"o":"m 2062 0 l 27 0 l 27 68 l 2062 68 l 2062 0 m 1541 1695 l 1541 0 l 1474 0 l 1474 1695 l 1541 1695 m 1532 960 l 1097 441 l 1044 484 l 1480 1004 l 1532 960 m 1531 1004 l 1967 484 l 1914 441 l 1478 960 l 1531 1004 m 1534 1695 l 1883 1280 l 1830 1236 l 1482 1652 l 1534 1695 m 1529 1652 l 1180 1236 l 1128 1280 l 1477 1695 l 1529 1652 m 592 1695 l 592 0 l 524 0 l 524 1695 l 592 1695 m 583 960 l 147 441 l 95 484 l 531 1004 l 583 960 m 581 1004 l 1017 484 l 965 441 l 529 960 l 581 1004 m 585 1695 l 933 1280 l 881 1236 l 532 1652 l 585 1695 m 579 1652 l 231 1236 l 178 1280 l 528 1695 l 579 1652 z "},"":{"ha":1356,"x_min":406,"x_max":948,"o":"m 609 519 l 609 1221 l 745 1221 l 745 519 l 609 519 m 677 543 q 810 508 745 543 q 911 406 875 473 q 948 268 948 339 q 912 130 948 196 q 812 28 877 64 q 677 -8 747 -8 q 542 28 607 -8 q 442 130 477 64 q 406 268 406 196 q 443 406 406 339 q 544 508 479 473 q 677 543 608 543 z "},"":{"ha":650,"x_min":27,"x_max":623,"o":"m 623 214 l 27 0 l 65 556 l 623 214 z "},"":{"ha":2115,"x_min":27,"x_max":2088,"o":"m 2077 0 l 43 0 l 43 68 l 2077 68 l 2077 0 m 694 1356 q 996 252 994 531 l 996 0 l 928 0 l 928 252 q 626 1356 926 531 l 694 1356 m 645 1422 q 219 1205 410 1333 q 62 1124 27 1078 q 220 1283 96 1171 q 578 1485 344 1394 l 645 1422 m 591 1485 q 265 1602 399 1575 q 174 1640 132 1629 q 321 1650 216 1651 q 610 1544 425 1649 l 591 1485 m 659 1538 q 951 1654 867 1645 q 1085 1648 1036 1664 q 1009 1609 1134 1632 q 687 1481 884 1586 l 659 1538 m 702 1481 q 963 1365 920 1407 q 1024 1288 1005 1323 q 976 1301 1043 1253 q 664 1430 909 1350 l 702 1481 m 1435 880 q 1046 0 1044 178 l 979 0 q 1367 880 976 178 l 1435 880 m 1501 994 q 1883 792 1751 904 q 2051 634 2014 680 q 1884 714 2088 587 q 1430 932 1680 842 l 1501 994 m 1468 1054 q 1775 1160 1665 1158 q 1931 1150 1886 1161 q 1835 1112 1977 1139 q 1489 994 1693 1085 l 1468 1054 m 1388 994 q 1119 1189 1237 1141 q 1056 1242 1002 1237 q 1209 1209 1111 1248 q 1429 1044 1307 1171 l 1388 994 m 1402 937 q 1021 844 1133 890 q 935 829 910 797 q 1045 905 960 862 q 1370 993 1129 949 l 1402 937 z "},"":{"ha":1152,"x_min":27,"x_max":1125,"o":"m 576 1017 q 648 822 671 983 q 610 339 624 661 l 610 0 l 543 0 l 543 339 q 507 822 532 661 q 576 1017 481 983 m 90 575 q 121 598 90 575 q 258 505 153 621 q 385 297 363 390 q 407 0 407 203 l 339 0 q 305 297 339 203 q 149 459 271 390 q 90 575 27 529 m 1062 575 q 1094 552 1062 575 q 1003 459 1125 529 q 847 297 881 390 q 813 0 813 203 l 745 0 q 767 297 745 203 q 895 505 789 390 q 1062 575 1000 621 z "},"":{"ha":563,"x_min":27,"x_max":536,"o":"m 95 678 l 95 0 l 27 0 l 27 678 l 95 678 m 536 678 l 536 0 l 468 0 l 468 678 l 536 678 z "},"":{"ha":1411,"x_min":27,"x_max":1383,"o":"m 197 339 q 280 317 239 339 q 343 254 320 295 q 366 170 366 214 q 344 85 366 125 q 281 22 321 45 q 197 0 241 0 q 112 22 153 0 q 50 85 72 45 q 27 170 27 125 q 50 254 27 214 q 113 317 73 295 q 197 339 154 339 m 1214 339 q 1297 317 1257 339 q 1360 254 1337 295 q 1383 170 1383 214 q 1361 85 1383 125 q 1298 22 1339 45 q 1214 0 1258 0 q 1129 22 1170 0 q 1067 85 1089 45 q 1044 170 1044 125 q 1067 254 1044 214 q 1131 317 1090 295 q 1214 339 1171 339 z "},"":{"ha":674,"x_min":27,"x_max":647,"o":"m 370 1356 l 370 0 l 302 0 l 302 1356 l 370 1356 m 81 416 l 373 42 l 319 0 l 27 374 l 81 416 m 647 374 l 355 0 l 301 42 l 593 416 l 647 374 z "},"":{"ha":1411,"x_min":27,"x_max":1383,"o":"m 1383 0 l 27 0 l 27 68 l 1383 68 l 1383 0 m 434 678 l 434 0 l 366 0 l 366 678 l 434 678 m 1044 678 l 1044 0 l 977 0 l 977 678 l 1044 678 z "},"":{"ha":461,"x_min":27,"x_max":434,"o":"m 231 1356 q 330 1330 281 1356 q 407 1255 379 1304 q 434 1153 434 1206 q 407 1052 434 1100 q 332 976 380 1003 q 231 949 283 949 q 129 976 178 949 q 54 1052 81 1003 q 27 1153 27 1100 q 55 1255 27 1206 q 131 1330 82 1304 q 231 1356 179 1356 m 264 1356 l 264 0 l 197 0 l 197 1356 l 264 1356 z "},"":{"ha":1919,"x_min":27,"x_max":1892,"o":"m 27 336 q 499 355 310 395 q 988 84 688 315 l 956 0 q 499 271 688 231 q 27 336 310 311 m 1892 336 q 1421 271 1609 311 q 956 0 1232 231 l 924 84 q 1421 355 1232 315 q 1892 336 1609 395 z "}}}
